<svg width="16" height="17" viewBox="0 0 16 17" fill="none" xmlns="http://www.w3.org/2000/svg">
<g clip-path="url(#clip0_1318_74)">
<path d="M8 0.5C3.5805 0.5 0 4.0805 0 8.5C0 12.9195 3.5805 16.5 8 16.5C12.4195 16.5 16 12.9195 16 8.5C16 4.0805 12.4195 0.5 8 0.5ZM8 15.8335C3.9505 15.8335 0.6665 12.5495 0.6665 8.5C0.6665 4.4505 3.9505 1.1665 8 1.1665C12.0495 1.1665 15.3335 4.4505 15.3335 8.5C15.3335 12.5495 12.0495 15.8335 8 15.8335ZM14.8125 8.5C14.8125 11.703 12.6015 14.388 9.6225 15.117C9.443 14.768 9.2685 14.4375 9.1225 14.1585C9.552 14.3225 10.409 14.635 10.594 14.5675C10.8465 14.471 10.784 12.4685 10.503 12.4035C10.2765 12.354 9.4145 12.9635 9.0735 13.211L9.097 13.315C9.149 13.578 9.1935 13.9765 9.118 14.1455L9.1155 14.1535C9.10526 14.1772 9.08907 14.1979 9.0685 14.2135C8.881 14.3385 8.3495 14.4035 8.0685 14.3385C8.053 14.336 8.04 14.3305 8.024 14.3255C7.563 14.5885 6.6855 15.065 6.524 14.974C6.305 14.8465 6.274 13.1875 6.305 12.7815C6.3285 12.474 7.4065 12.9715 7.9325 13.2345C8.0495 13.125 8.3335 13.052 8.586 13.026C8.206 12.1015 7.927 11.0415 8.0965 10.289C8.0965 10.2915 8.099 10.2915 8.099 10.2915C8.336 10.4555 9.9195 10.992 10.706 10.9765C11.4925 10.961 12.7815 10.4815 12.641 10.0935C12.5005 9.708 11.2165 10.4345 9.8805 10.3095C8.8885 10.2185 8.714 9.773 8.9325 9.45C9.2085 9.041 9.711 9.5255 10.5395 9.278C11.37 9.0305 12.5315 8.588 12.9615 8.3485C13.959 7.791 12.545 7.562 12.2115 7.7155C11.8965 7.864 10.7975 8.14 10.287 8.2625C10.571 7.252 9.8835 5.497 9.115 4.7285C8.865 4.4785 8.4795 4.322 8.0445 4.239C7.878 4.01 7.6095 3.791 7.2295 3.588C6.49312 3.20231 5.65169 3.06532 4.831 3.1975L4.8155 3.2L4.7945 3.2025L4.797 3.205C4.698 3.223 4.638 3.257 4.5575 3.27C4.6565 3.2805 5.029 3.455 5.263 3.5485C5.146 3.593 4.987 3.6215 4.8645 3.671C4.81806 3.67782 4.77258 3.69008 4.729 3.7075C4.6145 3.762 4.526 3.9575 4.5285 4.0515C5.0885 3.994 5.9165 4.036 6.5235 4.2155C6.094 4.2755 5.7005 4.3875 5.4165 4.5385L5.3825 4.5565C5.34872 4.56953 5.31567 4.58439 5.2835 4.601C4.372 5.08 3.9685 6.2025 4.208 7.549C4.424 8.765 5.3175 12.942 5.734 14.9265C3.0855 13.9915 1.187 11.468 1.187 8.4995C1.187 4.7365 4.2365 1.687 7.9995 1.687C11.7625 1.687 14.812 4.7365 14.812 8.4995L14.8125 8.5ZM6.0625 6.888C5.93245 6.89379 5.80965 6.94952 5.71967 7.04359C5.6297 7.13767 5.57948 7.26282 5.57948 7.393C5.57948 7.52318 5.6297 7.64833 5.71967 7.7424C5.80965 7.83648 5.93245 7.89221 6.0625 7.898C6.737 7.898 6.737 6.8875 6.0625 6.8875V6.888ZM6.289 7.354C6.25452 7.354 6.22146 7.3403 6.19708 7.31592C6.1727 7.29154 6.159 7.25848 6.159 7.224C6.159 7.18952 6.1727 7.15646 6.19708 7.13208C6.22146 7.1077 6.25452 7.094 6.289 7.094C6.4635 7.094 6.4635 7.354 6.289 7.354ZM9.4375 6.659C9.3793 6.65702 9.3213 6.66678 9.26695 6.68769C9.2126 6.7086 9.16301 6.74023 9.12114 6.7807C9.07927 6.82117 9.04597 6.86966 9.02323 6.92327C9.00049 6.97688 8.98877 7.03452 8.98877 7.09275C8.98877 7.15098 9.00049 7.20862 9.02323 7.26223C9.04597 7.31584 9.07927 7.36433 9.12114 7.4048C9.16301 7.44527 9.2126 7.4769 9.26695 7.49781C9.3213 7.51872 9.3793 7.52848 9.4375 7.5265C10.0155 7.5265 10.0155 6.6595 9.4375 6.6595V6.659ZM9.63 7.06C9.60038 7.05974 9.57204 7.04786 9.55109 7.02691C9.53014 7.00596 9.51826 6.97762 9.518 6.948C9.518 6.888 9.57 6.836 9.63 6.836C9.781 6.836 9.781 7.06 9.63 7.06ZM6.2085 5.9295C6.2085 5.9295 5.8285 5.7575 5.4585 5.9895C5.0885 6.224 5.1015 6.461 5.1015 6.461C5.1015 6.461 4.906 6.0235 5.4295 5.8075C5.953 5.594 6.208 5.93 6.208 5.93L6.2085 5.9295ZM9.7005 5.896C9.7005 5.896 9.427 5.7395 9.2135 5.7425C8.776 5.7475 8.659 5.9405 8.659 5.9405C8.659 5.9405 8.732 5.482 9.289 5.5735C9.4715 5.6075 9.625 5.727 9.7005 5.8965V5.896Z" fill="#E1E1E1"/>
</g>
<defs>
<clipPath id="clip0_1318_74">
<rect width="16" height="16" fill="white" transform="translate(0 0.5)"/>
</clipPath>
</defs>
</svg>
