<?xml version="1.0" encoding="UTF-8"?>
<svg version="1.1" xmlns="http://www.w3.org/2000/svg" width="1024" height="1024">
<path d="M0 0 C0.92683594 -0.00257812 1.85367187 -0.00515625 2.80859375 -0.0078125 C5.5625 0.125 5.5625 0.125 7.81762695 0.60424805 C10.96866025 1.20205593 14.03201707 1.40880815 17.234375 1.58984375 C18.53117187 1.6667041 19.82796875 1.74356445 21.1640625 1.82275391 C21.84243164 1.86184875 22.52080078 1.9009436 23.21972656 1.94122314 C33.94178927 2.56256993 44.60431538 3.29177542 55.25 4.7578125 C58.61808907 5.20331313 58.61808907 5.20331313 62.25 5.0546875 C65.64958273 5.12684845 66.64982809 5.64699288 69.5625 7.125 C71.27497625 7.59259647 73.00259294 8.00660601 74.73828125 8.37890625 C75.73150391 8.59353516 76.72472656 8.80816406 77.74804688 9.02929688 C78.77994141 9.24650391 79.81183594 9.46371094 80.875 9.6875 C81.89529297 9.90857422 82.91558594 10.12964844 83.96679688 10.35742188 C89.15341215 11.46716309 94.3024884 12.44628883 99.5625 13.125 C101.69650662 13.55180132 103.34484036 14.01135057 105.27148438 15.01733398 C108.12395754 16.39645491 111.03269887 17.38565128 114.03125 18.41015625 C115.32800285 18.85764677 116.62454413 19.30575075 117.92089844 19.75439453 C118.59697144 19.98789612 119.27304443 20.22139771 119.96960449 20.4619751 C133.1721671 25.03878646 145.9520853 30.08392618 158.5625 36.125 C160.35098293 36.96737744 162.14006292 37.80848821 163.9296875 38.6484375 C179.15908332 45.81177022 179.15908332 45.81177022 181.1875 47.38671875 C183.80280612 49.30088195 186.51378055 50.93119897 189.29711914 52.5871582 C210.44762854 65.19449385 229.89698637 79.81812905 247.87890625 96.62890625 C250.35570831 98.93265664 252.88627906 101.15456946 255.4375 103.375 C279.93327256 125.39367196 300.03384 153.2091014 316.34082031 181.66845703 C318.61590039 185.64388934 318.61590039 185.64388934 321.5625 189.125 C321.8925 190.115 322.2225 191.105 322.5625 192.125 C323.46646724 193.95817488 324.39467032 195.7794449 325.3359375 197.59375 C331.64484658 209.88853497 337.66140835 222.1941926 342.875 235 C343.33632324 236.12728516 343.79764648 237.25457031 344.27294922 238.41601562 C347.44687375 246.3671999 347.44687375 246.3671999 348.06323242 250.40673828 C348.22799072 251.30376465 348.39274902 252.20079102 348.5625 253.125 C349.2225 253.455 349.8825 253.785 350.5625 254.125 C351.2800293 256.13891602 351.2800293 256.13891602 351.94921875 258.81640625 C352.20622559 259.81816895 352.46323242 260.81993164 352.72802734 261.85205078 C353.14109131 263.47216064 353.14109131 263.47216064 353.5625 265.125 C354.17008518 267.32247182 354.7808852 269.51905673 355.39453125 271.71484375 C360.82619158 291.66275952 364.66729397 311.65976726 367.5625 332.125 C367.78292969 333.65205566 367.78292969 333.65205566 368.0078125 335.20996094 C372.26306157 366.36607982 371.02719389 400.06750294 366.5625 431.125 C366.3456958 432.64625488 366.3456958 432.64625488 366.12451172 434.19824219 C360.25636666 473.87808023 347.72347993 511.96734374 330.5625 548.125 C330.19060547 548.90875 329.81871094 549.6925 329.43554688 550.5 C326.11142054 557.44989752 322.74954022 564.25400205 318.29296875 570.5625 C316.86345202 572.67934644 315.5404848 574.80484199 314.23828125 577 C308.65493597 586.40369371 302.69142082 595.30806077 296.0703125 604.01904297 C295.49796875 604.77459473 294.925625 605.53014648 294.3359375 606.30859375 C293.82466309 606.97431396 293.31338867 607.64003418 292.78662109 608.32592773 C291.38069925 610.2166823 291.38069925 610.2166823 290.5625 613.125 C289.46134751 614.26056351 288.35228022 615.38921378 287.2109375 616.484375 C282.23424287 621.4374834 277.67624424 626.83528858 273.0625 632.125 C271.89620955 633.45866243 270.72952821 634.7919831 269.5625 636.125 C268.92183594 636.85976563 268.28117188 637.59453125 267.62109375 638.3515625 C258.56229296 648.59484738 249.05914613 658.45186578 238.3125 666.93359375 C235.84761937 668.8977955 233.4619214 670.93115191 231.08569336 673.00097656 C175.93296293 720.79151803 103.77459341 748.12231862 31.5625 754.125 C30.26441406 754.23714844 28.96632813 754.34929688 27.62890625 754.46484375 C5.66811092 756.05368226 -16.474008 755.28178288 -38.4375 754.125 C-38.4375 753.465 -38.4375 752.805 -38.4375 752.125 C-39.0975 752.125 -39.7575 752.125 -40.4375 752.125 C-41.17463037 747.59691347 -41.6630144 743.07073779 -42.0625 738.5 C-42.20558594 736.87191406 -42.20558594 736.87191406 -42.3515625 735.2109375 C-42.4375 732.125 -42.4375 732.125 -41.91552734 729.95092773 C-41.27987799 726.19319471 -41.61246621 722.60161249 -41.875 718.82421875 C-42.48882653 708.24093446 -42.5231325 697.67861901 -42.5 687.08203125 C-42.49770386 685.80579706 -42.49770386 685.80579706 -42.49536133 684.50378036 C-42.48313927 678.3149919 -42.46124541 672.12625339 -42.4375 665.9375 C-42.41381866 659.68075097 -42.39355041 653.42402523 -42.38156128 647.16724205 C-42.37509195 644.67988605 -42.36260557 642.19260706 -42.34985352 639.70527649 C-42.34622513 638.19650336 -42.34287289 636.68772953 -42.33984375 635.17895508 C-42.33460693 633.86107498 -42.32937012 632.54319489 -42.32397461 631.18537903 C-42.22305099 628.2091063 -42.22305099 628.2091063 -43.4375 626.125 C-42.7775 626.125 -42.1175 626.125 -41.4375 626.125 C-41.61152344 625.0525 -41.78554688 623.98 -41.96484375 622.875 C-42.66531537 617.27122704 -42.30615367 611.74837439 -42 606.125 C-41.94779297 605.06410156 -41.89558594 604.00320313 -41.84179688 602.91015625 C-41.71319454 600.31472725 -41.57828533 597.71979182 -41.4375 595.125 C-42.0975 595.125 -42.7575 595.125 -43.4375 595.125 C-43.7675 593.805 -44.0975 592.485 -44.4375 591.125 C-43.7775 590.795 -43.1175 590.465 -42.4375 590.125 C-42.43972061 588.98796127 -42.44194122 587.85092255 -42.44422913 586.6794281 C-42.46451827 575.95354032 -42.47949997 565.22765644 -42.48931217 554.50175381 C-42.49452632 548.98773332 -42.50159732 543.47372835 -42.51293945 537.9597168 C-42.52382048 532.63643809 -42.5297879 527.3131743 -42.53237724 521.98988533 C-42.53422209 519.96096627 -42.53782459 517.932048 -42.54323006 515.9031353 C-42.55050968 513.05706913 -42.55148802 510.21106424 -42.55102539 507.36499023 C-42.55462067 506.52988922 -42.55821594 505.69478821 -42.56192017 504.8343811 C-42.55371896 500.15870438 -42.21539584 495.73725312 -41.4375 491.125 C-42.0975 490.795 -42.7575 490.465 -43.4375 490.125 C-42.7775 490.125 -42.1175 490.125 -41.4375 490.125 C-41.61152344 489.0525 -41.78554688 487.98 -41.96484375 486.875 C-42.66531537 481.27122704 -42.30615367 475.74837439 -42 470.125 C-41.94779297 469.06410156 -41.89558594 468.00320313 -41.84179688 466.91015625 C-41.71319454 464.31472725 -41.57828533 461.71979182 -41.4375 459.125 C-42.0975 459.125 -42.7575 459.125 -43.4375 459.125 C-43.4375 458.465 -43.4375 457.805 -43.4375 457.125 C-44.0975 456.795 -44.7575 456.465 -45.4375 456.125 C-44.4475 456.125 -43.4575 456.125 -42.4375 456.125 C-42.1075 451.835 -41.7775 447.545 -41.4375 443.125 C-42.0975 443.125 -42.7575 443.125 -43.4375 443.125 C-43.1075 442.135 -42.7775 441.145 -42.4375 440.125 C-42.32196109 438.39222838 -42.26104865 436.65556879 -42.23217773 434.91918945 C-42.21223251 433.85831619 -42.19228729 432.79744293 -42.17173767 431.704422 C-42.15502518 430.56059555 -42.13831268 429.4167691 -42.12109375 428.23828125 C-42.0899221 426.48006294 -42.0899221 426.48006294 -42.05812073 424.68632507 C-41.99266182 420.93677714 -41.93375704 417.18715837 -41.875 413.4375 C-41.83181132 410.89777909 -41.78819692 408.35806538 -41.74414062 405.81835938 C-41.63698414 399.58731478 -41.5352108 393.35619949 -41.4375 387.125 C-42.0975 387.125 -42.7575 387.125 -43.4375 387.125 C-43.1075 386.135 -42.7775 385.145 -42.4375 384.125 C-42.34395622 382.36390604 -42.30680029 380.59951282 -42.3046875 378.8359375 C-42.30275391 377.30066406 -42.30275391 377.30066406 -42.30078125 375.734375 C-42.30464844 374.66703125 -42.30851562 373.5996875 -42.3125 372.5 C-42.30863281 371.42492187 -42.30476563 370.34984375 -42.30078125 369.2421875 C-42.30207031 368.22125 -42.30335938 367.2003125 -42.3046875 366.1484375 C-42.30581543 365.20919434 -42.30694336 364.26995117 -42.30810547 363.30224609 C-42.19443955 361.14675654 -42.19443955 361.14675654 -43.4375 360.125 C-45.49206861 360.0360923 -47.5497304 360.01813862 -49.60620117 360.02734375 C-50.57219742 360.02953415 -50.57219742 360.02953415 -51.55770874 360.0317688 C-52.96113533 360.0355839 -54.36455706 360.04170995 -55.76796532 360.04983521 C-57.99182978 360.06256503 -60.21563477 360.06910658 -62.43952942 360.07397461 C-67.96809943 360.08737118 -73.49661366 360.1114758 -79.02514648 360.13537598 C-83.68708799 360.15514611 -88.34900795 360.17077674 -93.01098061 360.18093872 C-95.19674647 360.18740031 -97.38242401 360.19991352 -99.56816101 360.21264648 C-100.91938196 360.21628214 -102.27060371 360.21963347 -103.62182617 360.22265625 C-105.38268806 360.23051147 -105.38268806 360.23051147 -107.17912292 360.23852539 C-110.4375 360.125 -110.4375 360.125 -116.4375 359.125 C-116.7675 482.875 -117.0975 606.625 -117.4375 734.125 C-121.39248581 733.33400284 -124.00619432 732.56125078 -127.5625 730.91015625 C-128.51640625 730.47123047 -129.4703125 730.03230469 -130.453125 729.58007812 C-131.43796875 729.12052734 -132.4228125 728.66097656 -133.4375 728.1875 C-135.3953893 727.2815918 -137.35370851 726.37661205 -139.3125 725.47265625 C-140.17617188 725.07054932 -141.03984375 724.66844238 -141.9296875 724.25415039 C-144.40734565 723.13857709 -146.90752278 722.11539767 -149.4375 721.125 C-149.1075 719.805 -148.7775 718.485 -148.4375 717.125 C-147.7775 717.455 -147.1175 717.785 -146.4375 718.125 C-146.4375 716.83811279 -146.4375 715.55122559 -146.4375 714.2253418 C-146.4375 671.75 -146.4375 671.75 -145.4375 665.125 C-146.0975 664.795 -146.7575 664.465 -147.4375 664.125 C-147.27516876 663.42581955 -147.11283752 662.7266391 -146.94558716 662.00627136 C-146.40673234 658.9505221 -146.31043353 656.12689416 -146.30810547 653.0246582 C-146.30337723 651.21171013 -146.30337723 651.21171013 -146.29855347 649.36213684 C-146.3005777 648.0631395 -146.30260193 646.76414215 -146.3046875 645.42578125 C-146.30401291 644.06682823 -146.30304159 642.70787534 -146.30178833 641.34892273 C-146.30031616 638.50189057 -146.30244879 635.65488983 -146.30712891 632.80786133 C-146.3127987 629.18476229 -146.30956167 625.5617378 -146.30355644 621.93864155 C-146.29991453 619.13054358 -146.30110642 616.32246278 -146.30368423 613.51436424 C-146.30466332 611.53710761 -146.30165882 609.55985027 -146.29855347 607.58259583 C-145.85489479 594.94418814 -145.85489479 594.94418814 -149.4375 583.125 C-148.7775 583.125 -148.1175 583.125 -147.4375 583.125 C-147.1075 581.145 -146.7775 579.165 -146.4375 577.125 C-147.4275 577.125 -148.4175 577.125 -149.4375 577.125 C-149.4375 576.465 -149.4375 575.805 -149.4375 575.125 C-148.4475 575.125 -147.4575 575.125 -146.4375 575.125 C-146.4375 573.145 -146.4375 571.165 -146.4375 569.125 C-147.4275 568.795 -148.4175 568.465 -149.4375 568.125 C-148.7775 567.795 -148.1175 567.465 -147.4375 567.125 C-147.4375 532.475 -147.4375 497.825 -147.4375 462.125 C-147.7675 462.125 -148.0975 462.125 -148.4375 462.125 C-148.63336184 459.2503509 -148.81943799 456.37561717 -149 453.5 C-149.05607422 452.69175781 -149.11214844 451.88351562 -149.16992188 451.05078125 C-149.44354422 446.56337484 -149.40551881 442.55637501 -148.4375 438.125 C-151.33664911 436.67542544 -153.851783 437.00567076 -157.09033203 437.01147461 C-157.77337402 437.01132858 -158.45641602 437.01118256 -159.16015625 437.0110321 C-161.4219071 437.01172977 -163.683576 437.01951535 -165.9453125 437.02734375 C-167.51187088 437.02920845 -169.07842984 437.03063211 -170.64498901 437.03163147 C-174.77139898 437.03545257 -178.89777384 437.0452794 -183.02416992 437.05633545 C-187.23355637 437.0665583 -191.44294847 437.07113097 -195.65234375 437.07617188 C-203.91407862 437.08690202 -212.17578495 437.10397358 -220.4375 437.125 C-220.43657821 438.33759365 -220.43565641 439.5501873 -220.43470669 440.79952621 C-220.41305785 469.57160026 -220.39656399 498.34367417 -220.38643467 527.11575447 C-220.38518394 530.65562018 -220.38388962 534.19548588 -220.38256836 537.73535156 C-220.38217489 538.79245533 -220.38217489 538.79245533 -220.38177348 539.87091473 C-220.37741989 551.28810086 -220.36953405 562.70528196 -220.3603472 574.1224651 C-220.35100203 585.83393262 -220.34544255 597.54539751 -220.34341151 609.2568686 C-220.34210548 615.83653141 -220.33902642 622.41618282 -220.33176994 628.99584198 C-220.32499975 635.18450845 -220.32288509 641.37315879 -220.32439232 647.56182861 C-220.32411644 649.83708026 -220.32211723 652.11233242 -220.31829453 654.38758087 C-220.31334174 657.48657705 -220.31450765 660.58551176 -220.31724548 663.68450928 C-220.31287622 665.04442793 -220.31287622 665.04442793 -220.30841869 666.43181968 C-220.31040974 667.26186523 -220.31240079 668.09191078 -220.31445217 668.94710922 C-220.31407245 669.66250232 -220.31369273 670.37789543 -220.3133015 671.11496711 C-220.44357409 673.22330334 -220.86310741 675.09619331 -221.4375 677.125 C-226.31707078 675.24824201 -229.49558152 671.16305306 -233.015625 667.46875 C-235.68584285 664.71761646 -237.98617938 662.74829063 -241.4375 661.125 C-243.21875 659.3203125 -243.21875 659.3203125 -244.9375 657.25 C-247.33508153 654.41415088 -249.75529415 651.69991762 -252.4375 649.125 C-252.11136719 648.41472656 -251.78523438 647.70445312 -251.44921875 646.97265625 C-250.37776891 643.95687659 -250.20128053 641.74698143 -250.25 638.5625 C-250.25644531 637.63308594 -250.26289063 636.70367188 -250.26953125 635.74609375 C-250.35550818 633.15882448 -250.35550818 633.15882448 -251.01171875 630.84765625 C-251.15222656 630.27917969 -251.29273438 629.71070313 -251.4375 629.125 C-251.1075 628.795 -250.7775 628.465 -250.4375 628.125 C-250.34708121 626.67992596 -250.3253313 625.23046149 -250.33215332 623.78257751 C-250.33526142 622.40414468 -250.33526142 622.40414468 -250.33843231 620.99786472 C-250.34598793 619.99559817 -250.35354355 618.99333162 -250.36132812 617.96069336 C-250.36755566 616.40623835 -250.36755566 616.40623835 -250.373909 614.82038021 C-250.388963 611.58851534 -250.41193628 608.35679761 -250.4375 605.125 C-250.44805923 603.7010536 -250.44805923 603.7010536 -250.45883179 602.24834061 C-250.50944621 595.75001043 -250.58109784 589.25199169 -250.65625 582.75390625 C-250.67878114 580.72411724 -250.70119902 578.69432696 -250.72351074 576.66453552 C-250.78157518 571.40901409 -250.84114244 566.15351082 -250.90106201 560.89801025 C-250.9731578 554.54573106 -251.04331752 548.19343021 -251.11381531 541.84113312 C-251.22025602 532.26907169 -251.32910076 522.69704035 -251.4375 513.125 C-275.5275 513.125 -299.6175 513.125 -324.4375 513.125 C-324.4375 524.015 -324.4375 534.905 -324.4375 546.125 C-325.9225 544.64 -325.9225 544.64 -327.4375 543.125 C-327.4375 542.465 -327.4375 541.805 -327.4375 541.125 C-328.0975 540.795 -328.7575 540.465 -329.4375 540.125 C-330.38667445 538.01092963 -331.24959691 535.85761849 -332.0625 533.6875 C-332.73152344 531.92599609 -332.73152344 531.92599609 -333.4140625 530.12890625 C-334.4375 527.125 -334.4375 527.125 -334.4375 525.125 C-335.0975 524.795 -335.7575 524.465 -336.4375 524.125 C-337.1484375 522.4453125 -337.1484375 522.4453125 -337.8125 520.25 C-339.26544167 515.60058665 -340.93650508 511.06020013 -342.66796875 506.5078125 C-343.4375 504.125 -343.4375 504.125 -343.4375 501.125 C-344.4275 500.795 -345.4175 500.465 -346.4375 500.125 C-347.1875 498.125 -347.1875 498.125 -347.4375 496.125 C-347.1075 495.795 -346.7775 495.465 -346.4375 495.125 C-349.9025 482.75 -349.9025 482.75 -353.4375 470.125 C-354.0975 470.125 -354.7575 470.125 -355.4375 470.125 C-355.7675 468.805 -356.0975 467.485 -356.4375 466.125 C-355.7775 466.125 -355.1175 466.125 -354.4375 466.125 C-354.60878418 465.3 -354.78006836 464.475 -354.95654297 463.625 C-355.74829012 459.79296518 -356.5328575 455.95951219 -357.3125 452.125 C-357.5217511 451.097733 -357.5217511 451.097733 -357.73522949 450.04971313 C-359.57923251 440.95389093 -361.18269106 431.91948498 -362.015625 422.66796875 C-362.22445312 421.40919922 -362.22445312 421.40919922 -362.4375 420.125 C-363.0975 419.795 -363.7575 419.465 -364.4375 419.125 C-365.1875 417.1875 -365.1875 417.1875 -365.4375 415.125 C-364.7775 414.465 -364.1175 413.805 -363.4375 413.125 C-363.23652656 410.82635466 -363.23652656 410.82635466 -363.42578125 408.1875 C-363.47283203 407.21039062 -363.51988281 406.23328125 -363.56835938 405.2265625 C-363.62830078 404.20304687 -363.68824219 403.17953125 -363.75 402.125 C-363.79833984 401.10148437 -363.84667969 400.07796875 -363.89648438 399.0234375 C-363.97146045 393.90838309 -363.97146045 393.90838309 -365.4375 389.125 C-364.7775 389.125 -364.1175 389.125 -363.4375 389.125 C-363.7675 388.465 -364.0975 387.805 -364.4375 387.125 C-364.6907288 385.27642975 -364.89292004 383.4206118 -365.0625 381.5625 C-365.15789062 380.57121094 -365.25328125 379.57992188 -365.3515625 378.55859375 C-365.37992188 377.75550781 -365.40828125 376.95242188 -365.4375 376.125 C-365.1075 375.795 -364.7775 375.465 -364.4375 375.125 C-364.26668292 372.90437796 -364.16017996 370.67879517 -364.078125 368.453125 C-364.01753434 367.00670825 -363.95579278 365.56033938 -363.89306641 364.11401367 C-363.86029602 363.34270111 -363.82752563 362.57138855 -363.79376221 361.77670288 C-363.16353215 347.53245381 -361.97156406 333.44278134 -360.0625 319.3125 C-359.9634436 318.55529663 -359.86438721 317.79809326 -359.7623291 317.01794434 C-358.40718689 306.77320314 -356.25804231 297.06557094 -353.4375 287.125 C-352.94382265 285.20777142 -352.45748372 283.28862953 -351.98046875 281.3671875 C-343.38074613 247.15286728 -330.33520118 214.17652673 -312.47094727 183.69238281 C-310.43227586 180.17223999 -308.90868946 177.24591124 -308.4375 173.125 C-307.4475 172.795 -306.4575 172.465 -305.4375 172.125 C-304.13059087 170.60744036 -304.13059087 170.60744036 -302.9765625 168.6875 C-302.27950195 167.6051709 -302.27950195 167.6051709 -301.56835938 166.50097656 C-301.07142578 165.7169043 -300.57449219 164.93283203 -300.0625 164.125 C-290.96670103 150.14648686 -280.78433018 137.1345521 -269.76171875 124.62841797 C-268.5838834 123.29119266 -267.4162035 121.94503779 -266.25 120.59765625 C-261.49068203 115.18032652 -256.45988056 110.04692825 -251.375 104.9375 C-250.7140332 104.27186035 -250.05306641 103.6062207 -249.37207031 102.92041016 C-243.12632581 96.69479324 -236.52169285 90.95475534 -229.6875 85.38671875 C-228.20289999 84.18421273 -228.20289999 84.18421273 -228.4375 82.125 C-227.89996094 82.05667969 -227.36242187 81.98835938 -226.80859375 81.91796875 C-223.4803687 80.80490502 -221.15389504 78.65416922 -218.5 76.4375 C-204.79704888 65.34701531 -189.70823892 55.90160612 -174.4375 47.125 C-173.37813232 46.51519287 -173.37813232 46.51519287 -172.29736328 45.89306641 C-170.0974138 44.63106868 -167.89372198 43.37599677 -165.6875 42.125 C-165.0071167 41.73852295 -164.3267334 41.3520459 -163.62573242 40.95385742 C-160.91922882 39.43512226 -158.38953411 38.10901137 -155.4375 37.125 C-153.59311865 36.33908663 -151.75544023 35.53738983 -149.921875 34.7265625 C-148.83519531 34.24703125 -147.74851562 33.7675 -146.62890625 33.2734375 C-145.49324219 32.77070313 -144.35757813 32.26796875 -143.1875 31.75 C-139.8921744 30.29383771 -136.59655498 28.83841206 -133.29882812 27.38769531 C-131.59109398 26.63407748 -129.885744 25.87496313 -128.18554688 25.10449219 C-125.39111121 23.85419526 -123.54340872 23.125 -120.4375 23.125 C-120.1075 22.465 -119.7775 21.805 -119.4375 21.125 C-117.41040039 20.40966797 -117.41040039 20.40966797 -114.72265625 19.7421875 C-110.43870352 18.64203918 -106.18139463 17.49086256 -101.93359375 16.2578125 C-73.40753913 8.09684702 -44.58407766 2.56416767 -14.86523438 1.41503906 C-9.79345677 1.21580823 -5.07773715 -0.01408526 0 0 Z M-115.4375 90.125 C-121.33987116 104.64019676 -126.9543902 119.25975543 -132.5352478 133.90057373 C-132.80720978 134.6140094 -133.07917175 135.32744507 -133.359375 136.0625 C-133.62706696 136.7648175 -133.89475891 137.46713501 -134.17056274 138.19073486 C-137.21952228 146.18447302 -140.32150459 154.15720327 -143.4375 162.125 C-158.56627291 164.73761844 -173.8540494 164.79294572 -189.16479492 165.22949219 C-192.70518849 165.33308333 -196.24512135 165.44739176 -199.78515625 165.5625 C-200.86644302 165.58965088 -201.9477298 165.61680176 -203.06178284 165.64477539 C-208.20710994 165.81473093 -212.62560269 166.08130111 -217.4375 168.125 C-213.98446299 176.4309539 -204.16203673 182.2316515 -197.35546875 187.7421875 C-194.18332791 190.33255686 -191.05700876 192.97176215 -187.9375 195.625 C-182.99340032 199.82836135 -177.99255837 203.95395483 -172.953125 208.04296875 C-169.88787001 210.57989563 -166.92862118 213.22149805 -163.99609375 215.91015625 C-162.50394935 217.32992046 -162.50394935 217.32992046 -160.4375 217.125 C-160.72485016 218.18044006 -160.72485016 218.18044006 -161.01800537 219.25720215 C-162.84320312 225.96233547 -164.66679158 232.66790471 -166.48867416 239.37393951 C-167.4248632 242.81967591 -168.36162503 246.26525423 -169.29980469 249.71044922 C-175.07662336 270.8635742 -175.07662336 270.8635742 -180.4375 292.125 C-179.4475 292.455 -178.4575 292.785 -177.4375 293.125 C-174.9041319 291.77649664 -172.57822491 290.38290034 -170.1875 288.8125 C-169.47658203 288.35681641 -168.76566406 287.90113281 -168.03320312 287.43164062 C-162.67422612 283.98082018 -157.37516203 280.43824401 -152.0871582 276.87988281 C-146.91956728 273.41271823 -141.66566203 270.09848672 -136.37402344 266.82446289 C-133.04393792 264.76218266 -129.73329692 262.67824275 -126.45703125 260.53125 C-125.82224854 260.11625244 -125.18746582 259.70125488 -124.53344727 259.27368164 C-123.33681037 258.4885321 -122.1430858 257.69891867 -120.95288086 256.90405273 C-115.6615427 253.43824612 -115.6615427 253.43824612 -112.4375 253.125 C-110.23510742 254.3190918 -110.23510742 254.3190918 -107.85546875 256.13671875 C-102.63156578 259.99653353 -97.24718978 263.48209566 -91.75 266.9375 C-85.22787028 271.06222337 -78.72468552 275.20594363 -72.3125 279.5 C-71.42594727 280.09312988 -71.42594727 280.09312988 -70.52148438 280.69824219 C-67.66991775 282.61158245 -64.82915756 284.53984828 -61.99609375 286.48046875 C-60.92488281 287.20878906 -59.85367188 287.93710937 -58.75 288.6875 C-57.81800781 289.32816406 -56.88601563 289.96882812 -55.92578125 290.62890625 C-53.68149731 291.97829518 -51.99554535 292.68767609 -49.4375 293.125 C-48.19996171 289.56753604 -48.68862034 287.23389737 -49.66015625 283.63671875 C-50.09255615 282.00561157 -50.09255615 282.00561157 -50.53369141 280.34155273 C-50.85257324 279.17696533 -51.17145508 278.01237793 -51.5 276.8125 C-52.15501551 274.35939305 -52.80996228 271.90626774 -53.46484375 269.453125 C-53.79726074 268.22142578 -54.12967773 266.98972656 -54.47216797 265.72070312 C-55.87097323 260.51038347 -57.21492507 255.28625053 -58.5625 250.0625 C-59.96152548 244.64490736 -61.38687929 239.24192223 -62.95703125 233.87109375 C-63.19599121 233.04681885 -63.43495117 232.22254395 -63.68115234 231.37329102 C-64.12841243 229.84344748 -64.58507637 228.31630654 -65.05322266 226.79272461 C-67.0786664 219.86049069 -67.0786664 219.86049069 -65.4375 216.125 C-63.39146626 213.89122518 -61.10837996 212.01939695 -58.75 210.125 C-57.83057617 209.36316406 -57.83057617 209.36316406 -56.89257812 208.5859375 C-54.49441728 206.60230499 -52.08450039 204.63598427 -49.64208984 202.70703125 C-48.20552302 201.55541377 -46.81641686 200.34505547 -45.4375 199.125 C-45.4375 198.465 -45.4375 197.805 -45.4375 197.125 C-44.90640625 197.06183594 -44.3753125 196.99867188 -43.828125 196.93359375 C-40.37778225 195.76656605 -37.91750031 193.51583759 -35.1875 191.1875 C-34.63320313 190.73181641 -34.07890625 190.27613281 -33.5078125 189.80664062 C-32.10777676 188.62902435 -30.76718486 187.38151038 -29.4375 186.125 C-29.4375 185.465 -29.4375 184.805 -29.4375 184.125 C-28.70660156 183.87621094 -27.97570312 183.62742187 -27.22265625 183.37109375 C-24.18945609 182.01402383 -22.29591278 180.44842203 -19.875 178.1875 C-17.15466079 175.66517508 -14.444777 173.30033189 -11.4375 171.125 C-12.11086239 168.10167592 -12.11086239 168.10167592 -14.11611938 166.96890259 C-17.00512372 165.91864904 -19.50657736 165.76001153 -22.57958984 165.62255859 C-23.82122894 165.5626474 -25.06286804 165.50273621 -26.34213257 165.44100952 C-27.69422467 165.38492169 -29.04632659 165.32907016 -30.3984375 165.2734375 C-31.7908568 165.20978444 -33.18324151 165.14537061 -34.57559204 165.08023071 C-38.23901208 164.91106364 -41.90283238 164.75298262 -45.5668335 164.59698486 C-48.54794399 164.46823797 -51.52867625 164.33176124 -54.50942039 164.19482994 C-60.68478946 163.91129549 -66.86044186 163.63395736 -73.03662109 163.36865234 C-74.13042084 163.32139008 -75.22422058 163.27412781 -76.35116577 163.22543335 C-79.38245855 163.12679112 -82.40484765 163.1072373 -85.4375 163.125 C-85.60783752 162.597854 -85.77817505 162.07070801 -85.95367432 161.52758789 C-87.93866126 155.469907 -90.13797133 149.51312198 -92.421875 143.5625 C-92.80055725 142.57233887 -93.1792395 141.58217773 -93.56939697 140.56201172 C-94.36854319 138.47407753 -95.16866965 136.38651828 -95.96972656 134.29931641 C-97.17294773 131.16293275 -98.37184722 128.02492229 -99.5703125 124.88671875 C-104.03181266 113.23009849 -108.60919212 101.63474768 -113.4375 90.125 C-114.0975 90.125 -114.7575 90.125 -115.4375 90.125 Z M50.77218437 276.97751236 C49.15629791 279.84610874 49.22129199 281.92285529 49.26953125 285.203125 C49.27919922 286.36328125 49.28886719 287.5234375 49.29882812 288.71875 C49.32396484 289.9253125 49.34910156 291.131875 49.375 292.375 C49.38853516 293.59703125 49.40207031 294.8190625 49.41601562 296.078125 C49.4513602 299.09419498 49.5007044 302.10937487 49.5625 305.125 C47.9125 305.455 46.2625 305.785 44.5625 306.125 C44.5625 306.785 44.5625 307.445 44.5625 308.125 C32.0225 308.125 19.4825 308.125 6.5625 308.125 C11.1825 307.795 15.8025 307.465 20.5625 307.125 C20.5625 306.795 20.5625 306.465 20.5625 306.125 C17.51932614 305.98941305 14.48224438 305.89062761 11.4375 305.8125 C10.5815625 305.77060547 9.725625 305.72871094 8.84375 305.68554688 C4.53384074 305.602664 1.48833978 305.67855494 -1.9921875 308.39453125 C-4.76461852 311.38510023 -4.76461852 311.38510023 -5.4375 315.125 C-5.51613281 316.20265625 -5.59476562 317.2803125 -5.67578125 318.390625 C-6.40149355 357.34991701 8.62963406 394.28894592 35.42285156 422.32202148 C52.81877882 440.09580715 77.47756906 456.91232702 102.84765625 459.54296875 C104.5625 460.125 104.5625 460.125 105.57421875 461.9140625 C105.90035156 462.64367187 106.22648437 463.37328125 106.5625 464.125 C113.49651368 472.5981055 122.55976462 478.00852718 131.875 483.484375 C136.96699877 486.6888225 138.97487873 490.49067016 140.5625 496.125 C144.02375277 512.94770648 140.2333347 532.67684281 131.0546875 547.015625 C129.11351585 549.75968964 127.1143205 551.92924748 124.5625 554.125 C123.96179688 554.67800781 123.36109375 555.23101563 122.7421875 555.80078125 C116.3724156 561.28912715 109.4902391 563.6029384 101.5625 566.125 C90.8398839 569.36715947 90.8398839 569.36715947 83.8125 577.5625 C81.6600247 583.69705459 80.25407358 590.19972074 82.375 596.5625 C83.57110209 598.44117939 83.57110209 598.44117939 86.5625 599.125 C88.60369448 599.22076336 90.64792314 599.25564895 92.69136047 599.25871277 C93.97417908 599.26297775 95.25699768 599.26724274 96.57868958 599.27163696 C98.00338748 599.27128744 99.42808536 599.2708259 100.8527832 599.27026367 C102.35086145 599.27325535 103.84893892 599.2766579 105.34701538 599.28044128 C109.41942888 599.28928559 113.49182138 599.29161961 117.56424356 599.29225707 C120.96375984 599.2932062 124.36327122 599.29688463 127.76278561 599.30042917 C135.78448655 599.30857572 143.80617626 599.31101326 151.82788086 599.31030273 C160.10131361 599.30970219 168.3746811 599.32024883 176.64809734 599.3360464 C183.75138064 599.34912612 190.85464264 599.35448643 197.9579379 599.35384732 C202.20026166 599.35359242 206.44252748 599.35643926 210.68483925 599.36702538 C214.67636698 599.37671337 218.66778145 599.37678073 222.6593132 599.36950874 C224.12261178 599.3684637 225.58591742 599.37082101 227.04920387 599.3768692 C229.0503511 599.38460332 231.05153699 599.37873855 233.0526886 599.37223816 C234.171536 599.37278293 235.2903834 599.37332769 236.44313526 599.37388897 C239.80279186 599.10582751 242.46312041 598.4428496 245.5625 597.125 C248.463102 592.08047478 247.71007154 586.62484285 246.5625 581.125 C244.87675795 575.58613327 242.27966425 572.10133042 237.22265625 569.265625 C233.1401476 567.51512203 228.89799114 566.3171694 224.64208984 565.06958008 C211.66908013 561.17283084 202.49749218 554.75535516 195.5625 543.125 C195.17964844 542.485625 194.79679688 541.84625 194.40234375 541.1875 C187.6501208 528.86405127 185.30698012 510.80758493 188.19921875 497.109375 C188.90893858 494.74133419 189.68632417 492.43574351 190.5625 490.125 C190.8925 489.135 191.2225 488.145 191.5625 487.125 C192.2225 487.125 192.8825 487.125 193.5625 487.125 C193.5625 486.465 193.5625 485.805 193.5625 485.125 C194.62404297 484.74021484 194.62404297 484.74021484 195.70703125 484.34765625 C205.20581662 480.28046087 213.19565534 473.22493 220.5625 466.125 C221.3153125 465.41859375 222.068125 464.7121875 222.84375 463.984375 C224.78876418 462.30223492 224.78876418 462.30223492 224.5625 460.125 C225.17996094 460.01542969 225.79742188 459.90585937 226.43359375 459.79296875 C227.28050781 459.63441406 228.12742187 459.47585938 229 459.3125 C230.23556641 459.08626953 230.23556641 459.08626953 231.49609375 458.85546875 C252.61655216 453.82422579 271.20895865 441.99052238 287.5625 428.125 C288.22121094 427.59003906 288.87992188 427.05507813 289.55859375 426.50390625 C294.07892617 422.78897827 297.87104942 418.65822488 301.5625 414.125 C302.24054688 413.29613281 302.91859375 412.46726562 303.6171875 411.61328125 C323.90743022 385.72697514 337.63256727 350.53455554 334.5625 317.125 C333.64981278 314.81428214 333.64981278 314.81428214 332.5625 313.125 C332.2325 313.455 331.9025 313.785 331.5625 314.125 C331.645 313.361875 331.7275 312.59875 331.8125 311.8125 C331.83485142 309.07884818 331.83485142 309.07884818 330.02026367 307.4753418 C326.68909495 305.64513477 323.68653494 305.74999841 319.98828125 305.83203125 C319.26384323 305.83627609 318.53940521 305.84052094 317.79301453 305.84489441 C315.48662585 305.8616379 313.1811227 305.899269 310.875 305.9375 C309.31186165 305.95255352 307.74870951 305.96624076 306.18554688 305.97851562 C302.31087668 306.01186001 298.43684434 306.06510171 294.5625 306.125 C292.20974309 306.125 289.84157782 305.8221855 287.5 305.625 C285.84291016 305.48578125 285.84291016 305.48578125 284.15234375 305.34375 C282.87037109 305.23546875 282.87037109 305.23546875 281.5625 305.125 C281.56773682 304.52437744 281.57297363 303.92375488 281.57836914 303.30493164 C281.59908014 300.59913162 281.61214125 297.89334823 281.625 295.1875 C281.63337891 294.24197266 281.64175781 293.29644531 281.65039062 292.32226562 C281.65361328 291.42314453 281.65683594 290.52402344 281.66015625 289.59765625 C281.66539307 288.76500244 281.67062988 287.93234863 281.67602539 287.07446289 C281.77893292 285.11983202 281.77893292 285.11983202 280.5625 284.125 C280.8925 283.135 281.2225 282.145 281.5625 281.125 C280.82395768 278.48686139 280.82395768 278.48686139 279.5625 276.125 C277.27018492 274.97884246 276.00384648 275.00161052 273.45640564 275.00474548 C272.59685776 275.00337082 271.73730988 275.00199615 270.85171509 275.00057983 C269.90670135 275.00417511 268.96168762 275.00777039 267.98803711 275.01147461 C266.99448715 275.01132858 266.00093719 275.01118256 264.97727966 275.0110321 C261.68144575 275.01173075 258.38566783 275.01952141 255.08984375 275.02734375 C252.80823294 275.02920824 250.52662173 275.030632 248.24501038 275.03163147 C242.2300405 275.03545536 236.21509464 275.04528384 230.20013428 275.05633545 C224.07027511 275.06654801 217.94041209 275.0711299 211.81054688 275.07617188 C199.72785377 275.08694243 187.64518011 275.10456682 175.5625 275.125 C173.6519289 275.125 171.74137275 275.10917554 169.83084106 275.0980835 C155.52569823 275.01729449 141.22064009 274.95687128 126.91533089 274.91775131 C119.56276385 274.89710916 112.21036761 274.86895038 104.85791016 274.82324219 C98.44731087 274.78340863 92.03683528 274.75757581 85.62611568 274.74864602 C82.23159709 274.74342616 78.83743269 274.73113806 75.4430275 274.70207977 C71.65727694 274.67318556 67.87226825 274.66903825 64.08642578 274.67089844 C62.95799255 274.65651733 61.82955933 274.64213623 60.66693115 274.62731934 C59.63772552 274.63281799 58.6085199 274.63831665 57.54812622 274.64398193 C56.20471759 274.63845118 56.20471759 274.63845118 54.83416939 274.63280869 C52.41207709 274.9373537 52.41207709 274.9373537 50.77218437 276.97751236 Z M22.5625 306.125 C22.5625 306.455 22.5625 306.785 22.5625 307.125 C24.2125 307.125 25.8625 307.125 27.5625 307.125 C27.5625 306.795 27.5625 306.465 27.5625 306.125 C25.9125 306.125 24.2625 306.125 22.5625 306.125 Z M29.5625 306.125 C29.5625 306.455 29.5625 306.785 29.5625 307.125 C34.1825 307.125 38.8025 307.125 43.5625 307.125 C43.5625 306.795 43.5625 306.465 43.5625 306.125 C38.9425 306.125 34.3225 306.125 29.5625 306.125 Z M331.5625 310.125 C332.5625 312.125 332.5625 312.125 332.5625 312.125 Z M-345.4375 498.125 C-344.4375 500.125 -344.4375 500.125 -344.4375 500.125 Z " fill="#060606" transform="translate(509.4375,122.875)"/>
<path d="M0 0 C0.66 0.33 1.32 0.66 2 1 C4.54615009 1.23172827 7.07396225 1.41894529 9.625 1.5625 C10.33140625 1.60568359 11.0378125 1.64886719 11.765625 1.69335938 C13.51018537 1.79944751 15.25506697 1.90022889 17 2 C17.28660875 8.01059499 16.24446506 13.29981664 14.8125 19.125 C14.4719458 20.52214233 14.4719458 20.52214233 14.12451172 21.94750977 C12.29840061 29.22103524 10.08042981 36.15067755 7 43 C6.49855469 44.1240625 5.99710938 45.248125 5.48046875 46.40625 C-5.40511967 69.45208591 -22.61231708 86.98609689 -45 99 C-45 95.65750271 -44.28523308 94.11892182 -42.875 91.1171875 C-42.41947754 90.12759033 -41.96395508 89.13799316 -41.49462891 88.1184082 C-40.7547876 86.51292114 -40.7547876 86.51292114 -40 84.875 C-30.32446305 63.33827191 -22.04155287 39.64334023 -20.24389648 15.93139648 C-20 14 -20 14 -19 13 C-18.60430892 10.98688551 -18.25747809 8.96402792 -17.9375 6.9375 C-17.76089844 5.83277344 -17.58429687 4.72804688 -17.40234375 3.58984375 C-17.26957031 2.73519531 -17.13679687 1.88054687 -17 1 C-15.85660156 1.01160156 -14.71320312 1.02320313 -13.53515625 1.03515625 C-12.04427246 1.04453288 -10.55338691 1.05363321 -9.0625 1.0625 C-8.30775391 1.07087891 -7.55300781 1.07925781 -6.77539062 1.08789062 C-4.85005687 1.09652441 -2.92464419 1.05224333 -1 1 C-0.67 0.67 -0.34 0.34 0 0 Z " fill="#080808" transform="translate(804,450)"/>
<path d="M0 0 C0.5625 2.32910156 0.5625 2.32910156 1 5.390625 C1.2475 7.04384766 1.2475 7.04384766 1.5 8.73046875 C1.7475 10.47263672 1.7475 10.47263672 2 12.25 C2.32782422 14.52684168 2.66097132 16.80292472 3 19.078125 C3.144375 20.09293945 3.28875 21.10775391 3.4375 22.15332031 C3.99444245 24.97187457 4.91456431 27.34983818 6 30 C6.12375 31.14210938 6.2475 32.28421875 6.375 33.4609375 C7.05404966 39.72165831 9.12251123 45.63900864 11 51.625 C11.29512985 52.57427368 11.29512985 52.57427368 11.59622192 53.54272461 C15.15751402 64.95696118 19.376819 76.03374182 24.14404297 87 C24.84578042 88.63965578 25.49498863 90.30170021 26.12890625 91.96875 C26.92532674 94.17277686 26.92532674 94.17277686 29 96 C19.88849245 94.72176693 10.60564287 87.18157691 4 81 C4 80.34 4 79.68 4 79 C3.13375 78.62875 3.13375 78.62875 2.25 78.25 C-2.45174894 75.63791726 -5.57292299 71.19959111 -8.8125 67 C-9.24973389 66.43692139 -9.68696777 65.87384277 -10.13745117 65.29370117 C-13.73685023 60.56029009 -16.60591677 55.65432606 -19.33203125 50.36328125 C-21.29066893 47.58816228 -22.78465278 46.9334879 -26 46 C-25.67 45.34 -25.34 44.68 -25 44 C-24.34 44 -23.68 44 -23 44 C-23.78668518 42.37258256 -24.5795241 40.74813869 -25.375 39.125 C-25.81585937 38.22007812 -26.25671875 37.31515625 -26.7109375 36.3828125 C-27.90502699 33.90465528 -27.90502699 33.90465528 -30 32 C-30.23971255 29.94532097 -30.46894731 27.88893826 -30.6484375 25.828125 C-31.20495504 21.35125054 -32.31911845 17.00613236 -33.37890625 12.625 C-34.10902876 8.36365605 -34.12641278 4.3090269 -34 0 C-29.47954554 -0.16749457 -24.95891882 -0.32806608 -20.43798828 -0.48217773 C-18.89950922 -0.53560391 -17.36109506 -0.59093379 -15.82275391 -0.64819336 C-13.61374914 -0.73008748 -11.40460276 -0.80517099 -9.1953125 -0.87890625 C-8.50567413 -0.90594131 -7.81603577 -0.93297638 -7.10549927 -0.96083069 C-2.22774341 -1.11387171 -2.22774341 -1.11387171 0 0 Z M-29 30 C-28 32 -28 32 -28 32 Z M-23 44 C-22 46 -22 46 -22 46 Z " fill="#080808" transform="translate(562,452)"/>
<path d="M0 0 C0.66 0 1.32 0 2 0 C3.11121075 3.33363224 3.12305796 5.80837705 3.12025452 9.3210907 C3.12110894 9.96477169 3.12196337 10.60845269 3.12284368 11.27163917 C3.12449294 13.43201613 3.11898617 15.59231572 3.11352539 17.75268555 C3.11324337 19.29990639 3.11340154 20.84712738 3.1139679 22.39434814 C3.1142553 26.59859355 3.10836769 30.80281053 3.10139394 35.00704932 C3.09515101 39.39929546 3.09455585 43.79154222 3.09336853 48.18379211 C3.09025799 56.50290922 3.08204833 64.82201322 3.07201904 73.14112455 C3.06084931 82.61138699 3.05534528 92.08165005 3.05032361 101.55191743 C3.0398655 121.03461906 3.02227141 140.51730848 3 160 C2.67 160 2.34 160 2 160 C1.92652344 158.98679687 1.92652344 158.98679687 1.8515625 157.953125 C1.73941406 156.61507812 1.73941406 156.61507812 1.625 155.25 C1.55539062 154.36828125 1.48578125 153.4865625 1.4140625 152.578125 C1.00149945 150.00933618 0.28839043 148.24158985 -1 146 C-0.34 146 0.32 146 1 146 C1.33 144.02 1.66 142.04 2 140 C1.01 140 0.02 140 -1 140 C-1 139.34 -1 138.68 -1 138 C-0.01 138 0.98 138 2 138 C2 136.02 2 134.04 2 132 C1.01 131.67 0.02 131.34 -1 131 C-0.34 130.67 0.32 130.34 1 130 C1 95.35 1 60.7 1 25 C0.67 25 0.34 25 0 25 C-0.19629336 22.14619655 -0.38226546 19.29232606 -0.5625 16.4375 C-0.61857422 15.63763672 -0.67464844 14.83777344 -0.73242188 14.01367188 C-1.02968013 9.15845373 -0.86778632 4.78889489 0 0 Z " fill="#323231" transform="translate(361,560)"/>
<path d="M0 0 C0.33 0 0.66 0 1 0 C1.19582583 4.31216481 1.38027074 8.6247409 1.5625 12.9375 C1.64661133 14.78504883 1.64661133 14.78504883 1.73242188 16.66992188 C1.78076172 17.83974609 1.82910156 19.00957031 1.87890625 20.21484375 C1.9260376 21.29886475 1.97316895 22.38288574 2.02172852 23.49975586 C2 26 2 26 1 27 C-0.66617115 27.04063832 -2.33388095 27.042721 -4 27 C-4 27.66 -4 28.32 -4 29 C-16.67943749 30.01726146 -29.28539548 30.11427673 -42 30 C-42.33 29.34 -42.66 28.68 -43 28 C-44.32 27.34 -45.64 26.68 -47 26 C-31.49 26 -15.98 26 0 26 C0 17.42 0 8.84 0 0 Z M-26 27 C-26 27.33 -26 27.66 -26 28 C-24.35 28 -22.7 28 -21 28 C-21 27.67 -21 27.34 -21 27 C-22.65 27 -24.3 27 -26 27 Z M-19 27 C-19 27.33 -19 27.66 -19 28 C-14.38 28 -9.76 28 -5 28 C-5 27.67 -5 27.34 -5 27 C-9.62 27 -14.24 27 -19 27 Z " fill="#343433" transform="translate(558,402)"/>
<path d="M0 0 C0.33 0 0.66 0 1 0 C1 21.12 1 42.24 1 64 C0.67 64 0.34 64 0 64 C-0.07347656 62.98679687 -0.07347656 62.98679687 -0.1484375 61.953125 C-0.26058594 60.61507812 -0.26058594 60.61507812 -0.375 59.25 C-0.44460938 58.36828125 -0.51421875 57.4865625 -0.5859375 56.578125 C-0.99850055 54.00933618 -1.71160957 52.24158985 -3 50 C-2.34 50 -1.68 50 -1 50 C-0.505 47.03 -0.505 47.03 0 44 C-0.99 44 -1.98 44 -3 44 C-3 43.34 -3 42.68 -3 42 C-2.01 42 -1.02 42 0 42 C0 40.02 0 38.04 0 36 C-0.99 35.67 -1.98 35.34 -3 35 C-2.01 34.505 -2.01 34.505 -1 34 C-0.67 22.78 -0.34 11.56 0 0 Z " fill="#3A3A39" transform="translate(363,656)"/>
<path d="M0 0 C0.66 0 1.32 0 2 0 C2.98043964 2.94131891 3.11621202 4.82501665 3.09765625 7.88671875 C3.09282227 9.2934082 3.09282227 9.2934082 3.08789062 10.72851562 C3.07951172 11.70498047 3.07113281 12.68144531 3.0625 13.6875 C3.05798828 14.67556641 3.05347656 15.66363281 3.04882812 16.68164062 C3.03704303 19.12115474 3.02059011 21.56054689 3 24 C2.01 24.33 1.02 24.66 0 25 C-0.19629336 22.14619655 -0.38226546 19.29232606 -0.5625 16.4375 C-0.61857422 15.63763672 -0.67464844 14.83777344 -0.73242188 14.01367188 C-1.02968013 9.15845373 -0.86778632 4.78889489 0 0 Z " fill="#262625" transform="translate(361,560)"/>
<path d="M0 0 C0 0.66 0 1.32 0 2 C-12.67943749 3.01726146 -25.28539548 3.11427673 -38 3 C-38.33 2.34 -38.66 1.68 -39 1 C-26.00156173 -0.16652651 -13.04119828 -0.10531468 0 0 Z " fill="#272625" transform="translate(554,429)"/>
<path d="M0 0 C0.33 0 0.66 0 1 0 C1.99418527 8.48881273 1.89073566 16.50375215 1 25 C0.67 25 0.34 25 0 25 C-1.33257403 8.29157175 -1.33257403 8.29157175 0 0 Z " fill="#1C1B1A" transform="translate(650,619)"/>
<path d="M0 0 C8.91 0 17.82 0 27 0 C27 0.33 27 0.66 27 1 C18.09 1 9.18 1 0 1 C0 0.67 0 0.34 0 0 Z " fill="#252424" transform="translate(744,399)"/>
<path d="M0 0 C8.58 0 17.16 0 26 0 C26 0.33 26 0.66 26 1 C17.42 1 8.84 1 0 1 C0 0.67 0 0.34 0 0 Z " fill="#252525" transform="translate(653,399)"/>
<path d="M0 0 C7.59 0 15.18 0 23 0 C23 0.33 23 0.66 23 1 C15.41 1 7.82 1 0 1 C0 0.67 0 0.34 0 0 Z " fill="#252324" transform="translate(607,399)"/>
<path d="M0 0 C7.26 0 14.52 0 22 0 C22 0.33 22 0.66 22 1 C14.74 1 7.48 1 0 1 C0 0.67 0 0.34 0 0 Z " fill="#252424" transform="translate(712,399)"/>
<path d="M0 0 C7.26 0 14.52 0 22 0 C22 0.33 22 0.66 22 1 C14.74 1 7.48 1 0 1 C0 0.67 0 0.34 0 0 Z " fill="#242222" transform="translate(568,399)"/>
<path d="M0 0 C0.33 0 0.66 0 1 0 C1 5.94 1 11.88 1 18 C0.67 18 0.34 18 0 18 C-1.17814715 12.10926427 -1.93753594 5.81260782 0 0 Z " fill="#252424" transform="translate(361,591)"/>
<path d="M0 0 C5.28 0 10.56 0 16 0 C16 0.33 16 0.66 16 1 C10.72 1 5.44 1 0 1 C0 0.67 0 0.34 0 0 Z " fill="#252424" transform="translate(631,399)"/>
<path d="M0 0 C4.62 0 9.24 0 14 0 C14 0.33 14 0.66 14 1 C9.38 1 4.76 1 0 1 C0 0.67 0 0.34 0 0 Z " fill="#252424" transform="translate(592,399)"/>
<path d="M0 0 C3.96 0 7.92 0 12 0 C12 0.33 12 0.66 12 1 C8.04 1 4.08 1 0 1 C0 0.67 0 0.34 0 0 Z " fill="#242424" transform="translate(772,399)"/>
<path d="M0 0 C0.33 0 0.66 0 1 0 C1 2.97 1 5.94 1 9 C0.67 9 0.34 9 0 9 C-1.125 3.375 -1.125 3.375 0 0 Z " fill="#242423" transform="translate(361,616)"/>
<path d="M0 0 C0.33 0 0.66 0 1 0 C1 2.64 1 5.28 1 8 C0.34 7.67 -0.32 7.34 -1 7 C-0.67 4.69 -0.34 2.38 0 0 Z " fill="#242322" transform="translate(257,641)"/>
<path d="M0 0 C0.33 0 0.66 0 1 0 C1 1.65 1 3.3 1 5 C0.01 5 -0.98 5 -2 5 C-1.34 3.35 -0.68 1.7 0 0 Z " fill="#272627" transform="translate(466,704)"/>
<path d="M0 0 C0.99 1.32 1.98 2.64 3 4 C2.67 4.66 2.34 5.32 2 6 C0 3 0 3 0 0 Z " fill="#20201F" transform="translate(402,234)"/>
<path d="M0 0 C0.66 0 1.32 0 2 0 C2 1.65 2 3.3 2 5 C0 1.125 0 1.125 0 0 Z " fill="#262625" transform="translate(465,768)"/>
<path d="M0 0 C0.33 0 0.66 0 1 0 C1 2.31 1 4.62 1 7 C0.67 7 0.34 7 0 7 C0 4.69 0 2.38 0 0 Z " fill="#242423" transform="translate(257,655)"/>
<path d="M0 0 C0.66 0.99 1.32 1.98 2 3 C0.68 2.67 -0.64 2.34 -2 2 C-1.34 1.34 -0.68 0.68 0 0 Z " fill="#282927" transform="translate(170,642)"/>
<path d="M0 0 C0.33 0 0.66 0 1 0 C1 2.31 1 4.62 1 7 C0.67 7 0.34 7 0 7 C0 4.69 0 2.38 0 0 Z " fill="#242423" transform="translate(466,519)"/>
<path d="M0 0 C0.33 0 0.66 0 1 0 C1 2.31 1 4.62 1 7 C0.67 7 0.34 7 0 7 C0 4.69 0 2.38 0 0 Z " fill="#242223" transform="translate(466,511)"/>
<path d="M0 0 C0.33 0 0.66 0 1 0 C1 2.31 1 4.62 1 7 C0.67 7 0.34 7 0 7 C0 4.69 0 2.38 0 0 Z " fill="#282725" transform="translate(842,441)"/>
<path d="M0 0 C2.31 0 4.62 0 7 0 C7 0.33 7 0.66 7 1 C4.69 1 2.38 1 0 1 C0 0.67 0 0.34 0 0 Z " fill="#252324" transform="translate(704,399)"/>
<path d="M0 0 C2.475 0.495 2.475 0.495 5 1 C4.01 1.495 4.01 1.495 3 2 C2.01 1.34 1.02 0.68 0 0 Z " fill="#262725" transform="translate(537,878)"/>
<path d="M0 0 C0.33 0 0.66 0 1 0 C1 1.65 1 3.3 1 5 C0.34 4.34 -0.32 3.68 -1 3 C-0.67 2.01 -0.34 1.02 0 0 Z " fill="#272727" transform="translate(466,721)"/>
<path d="M0 0 C0.33 1.32 0.66 2.64 1 4 C0.34 3.67 -0.32 3.34 -1 3 C-0.67 2.01 -0.34 1.02 0 0 Z " fill="#262625" transform="translate(361,650)"/>
<path d="M0 0 C0.66 0.33 1.32 0.66 2 1 C1.67 1.66 1.34 2.32 1 3 C0.34 2.67 -0.32 2.34 -1 2 C-0.67 1.34 -0.34 0.68 0 0 Z " fill="#2C2B2B" transform="translate(257,768)"/>
<path d="M0 0 C0.33 1.32 0.66 2.64 1 4 C0.34 3.01 -0.32 2.02 -1 1 C-0.67 0.67 -0.34 0.34 0 0 Z " fill="#292929" transform="translate(257,706)"/>
<path d="M0 0 C0.33 1.32 0.66 2.64 1 4 C0.34 3.01 -0.32 2.02 -1 1 C-0.67 0.67 -0.34 0.34 0 0 Z " fill="#272625" transform="translate(361,642)"/>
<path d="M0 0 C0.33 1.32 0.66 2.64 1 4 C0.34 3.01 -0.32 2.02 -1 1 C-0.67 0.67 -0.34 0.34 0 0 Z " fill="#242423" transform="translate(361,610)"/>
<path d="M0 0 C0.33 0 0.66 0 1 0 C1 1.65 1 3.3 1 5 C0.67 5 0.34 5 0 5 C0 3.35 0 1.7 0 0 Z " fill="#282727" transform="translate(146,545)"/>
<path d="M0 0 C0.66 0 1.32 0 2 0 C1.67 0.99 1.34 1.98 1 3 C0.67 2.01 0.34 1.02 0 0 Z " fill="#242321" transform="translate(464,483)"/>
<path d="M0 0 C0.66 0.66 1.32 1.32 2 2 C0.68 1.67 -0.64 1.34 -2 1 C-1.34 0.67 -0.68 0.34 0 0 Z " fill="#292928" transform="translate(819,449)"/>
<path d="M0 0 C0.99 0 1.98 0 3 0 C3 0.66 3 1.32 3 2 C2.01 1.67 1.02 1.34 0 1 C0 0.67 0 0.34 0 0 Z " fill="#211F1F" transform="translate(449,408)"/>
<path d="M0 0 C0 0.99 0 1.98 0 3 C-0.66 2.67 -1.32 2.34 -2 2 C-1.34 1.34 -0.68 0.68 0 0 Z " fill="#272625" transform="translate(187,321)"/>
<path d="M0 0 C0.99 0.33 1.98 0.66 3 1 C2.01 1.33 1.02 1.66 0 2 C0 1.34 0 0.68 0 0 Z " fill="#20201F" transform="translate(480,304)"/>
<path d="M0 0 C0.99 0.33 1.98 0.66 3 1 C1.68 1.33 0.36 1.66 -1 2 C-0.67 1.34 -0.34 0.68 0 0 Z " fill="#272727" transform="translate(334,168)"/>
<path d="M0 0 C4 1 4 1 4 1 Z " fill="#282626" transform="translate(522,879)"/>
<path d="M0 0 C0.99 0 1.98 0 3 0 C2.67 0.66 2.34 1.32 2 2 C1.34 1.34 0.68 0.68 0 0 Z " fill="#252625" transform="translate(464,739)"/>
<path d="M0 0 C0 3 0 3 0 3 Z " fill="#292927" transform="translate(361,714)"/>
<path d="M0 0 C0 3 0 3 0 3 Z " fill="#272627" transform="translate(466,691)"/>
<path d="M0 0 C1 4 1 4 1 4 Z " fill="#282827" transform="translate(257,682)"/>
<path d="M0 0 C1 4 1 4 1 4 Z " fill="#272726" transform="translate(257,674)"/>
<path d="M0 0 C0 3 0 3 0 3 Z " fill="#272726" transform="translate(361,658)"/>
<path d="M0 0 C1 4 1 4 1 4 Z " fill="#2C2A2A" transform="translate(697,651)"/>
<path d="M0 0 C1 4 1 4 1 4 Z " fill="#252524" transform="translate(257,650)"/>
<path d="M0 0 C1 4 1 4 1 4 Z " fill="#29292A" transform="translate(696,646)"/>
<path d="M0 0 C1 4 1 4 1 4 Z " fill="#252525" transform="translate(361,634)"/>
<path d="M0 0 C1 4 1 4 1 4 Z " fill="#262626" transform="translate(361,626)"/>
<path d="M0 0 C1 4 1 4 1 4 Z " fill="#262525" transform="translate(361,586)"/>
<path d="M0 0 C0.99 0.33 1.98 0.66 3 1 C2.01 1.33 1.02 1.66 0 2 C0 1.34 0 0.68 0 0 Z " fill="#292929" transform="translate(767,568)"/>
<path d="M0 0 C1 4 1 4 1 4 Z " fill="#2C2B2A" transform="translate(144,479)"/>
<path d="M0 0 C1 4 1 4 1 4 Z " fill="#2B292A" transform="translate(144,472)"/>
<path d="M0 0 C4 1 4 1 4 1 Z " fill="#2D2E2C" transform="translate(548,450)"/>
<path d="M0 0 C4 1 4 1 4 1 Z " fill="#242323" transform="translate(648,399)"/>
<path d="M0 0 C0.99 0.495 0.99 0.495 2 1 C1.67 1.66 1.34 2.32 1 3 C0.67 2.01 0.34 1.02 0 0 Z " fill="#232021" transform="translate(408,250)"/>
<path d="M0 0 C0.33 0.66 0.66 1.32 1 2 C0.01 1.67 -0.98 1.34 -2 1 C-1.34 0.67 -0.68 0.34 0 0 Z " fill="#292928" transform="translate(402,138)"/>
<path d="M0 0 C3 1 3 1 3 1 Z " fill="#2C2C2A" transform="translate(484,878)"/>
<path d="M0 0 C3 1 3 1 3 1 Z " fill="#282625" transform="translate(545,877)"/>
<path d="M0 0 C3 1 3 1 3 1 Z " fill="#2A2929" transform="translate(473,877)"/>
<path d="M0 0 C0.66 0.66 1.32 1.32 2 2 C1.34 2 0.68 2 0 2 C0 1.34 0 0.68 0 0 Z " fill="#262523" transform="translate(708,822)"/>
<path d="M0 0 C0.66 0 1.32 0 2 0 C1.67 0.66 1.34 1.32 1 2 C0.67 1.34 0.34 0.68 0 0 Z " fill="#2A2929" transform="translate(360,739)"/>
<path d="" fill="#262324" transform="translate(0,0)"/>
<path d="" fill="#272725" transform="translate(0,0)"/>
<path d="M0 0 C0.66 0.66 1.32 1.32 2 2 C1.34 2 0.68 2 0 2 C0 1.34 0 0.68 0 0 Z " fill="#282726" transform="translate(723,685)"/>
<path d="" fill="#272626" transform="translate(0,0)"/>
<path d="M0 0 C0.66 0 1.32 0 2 0 C1.67 0.66 1.34 1.32 1 2 C0.67 1.34 0.34 0.68 0 0 Z " fill="#2A2827" transform="translate(704,669)"/>
<path d="M0 0 C0.66 0 1.32 0 2 0 C1.67 0.66 1.34 1.32 1 2 C0.67 1.34 0.34 0.68 0 0 Z " fill="#272725" transform="translate(360,667)"/>
<path d="M0 0 C0.66 0.66 1.32 1.32 2 2 C1.34 2 0.68 2 0 2 C0 1.34 0 0.68 0 0 Z " fill="#282928" transform="translate(176,656)"/>
<path d="M0 0 C0.66 0.66 1.32 1.32 2 2 C1.34 2 0.68 2 0 2 C0 1.34 0 0.68 0 0 Z " fill="#272525" transform="translate(235,637)"/>
<path d="M0 0 C0.33 0.66 0.66 1.32 1 2 C0.34 1.67 -0.32 1.34 -1 1 C-0.67 0.67 -0.34 0.34 0 0 Z " fill="#2C2A2A" transform="translate(602,577)"/>
<path d="M0 0 C3 1 3 1 3 1 Z " fill="#2C2C2B" transform="translate(750,576)"/>
<path d="M0 0 C3 1 3 1 3 1 Z " fill="#272627" transform="translate(595,576)"/>
<path d="" fill="#252423" transform="translate(0,0)"/>
<path d="" fill="#242422" transform="translate(0,0)"/>
<path d="M0 0 C0.66 0.66 1.32 1.32 2 2 C1.34 2 0.68 2 0 2 C0 1.34 0 0.68 0 0 Z " fill="#242423" transform="translate(540,501)"/>
<path d="" fill="#222121" transform="translate(0,0)"/>
<path d="" fill="#282627" transform="translate(0,0)"/>
<path d="" fill="#2F2F30" transform="translate(0,0)"/>
<path d="M0 0 C0.66 0 1.32 0 2 0 C1.67 0.66 1.34 1.32 1 2 C0.67 1.34 0.34 0.68 0 0 Z " fill="#2F302E" transform="translate(789,449)"/>
<path d="M0 0 C3 1 3 1 3 1 Z " fill="#262525" transform="translate(740,399)"/>
<path d="M0 0 C3 1 3 1 3 1 Z " fill="#252423" transform="translate(736,399)"/>
<path d="" fill="#222121" transform="translate(0,0)"/>
<path d="M0 0 C0.99 0.495 0.99 0.495 2 1 C1.01 1.495 1.01 1.495 0 2 C0 1.34 0 0.68 0 0 Z " fill="#252524" transform="translate(240,240)"/>
<path d="" fill="#272624" transform="translate(0,0)"/>
<path d="M0 0 C2 1 2 1 2 1 Z " fill="#2A2928" transform="translate(508,879)"/>
<path d="M0 0 C2 1 2 1 2 1 Z " fill="#292726" transform="translate(500,879)"/>
<path d="M0 0 C2 1 2 1 2 1 Z " fill="#272627" transform="translate(531,878)"/>
<path d="M0 0 C2 1 2 1 2 1 Z " fill="#272625" transform="translate(592,870)"/>
<path d="M0 0 C2 1 2 1 2 1 Z " fill="#262524" transform="translate(596,869)"/>
<path d="M0 0 C2 1 2 1 2 1 Z " fill="#232122" transform="translate(598,868)"/>
<path d="M0 0 C2 1 2 1 2 1 Z " fill="#262524" transform="translate(621,862)"/>
<path d="M0 0 C2 1 2 1 2 1 Z " fill="#2C2A2B" transform="translate(378,853)"/>
<path d="M0 0 C2 1 2 1 2 1 Z " fill="#272627" transform="translate(676,839)"/>
<path d="" fill="#2B2A28" transform="translate(0,0)"/>
<path d="M0 0 C2 1 2 1 2 1 Z " fill="#282827" transform="translate(361,832)"/>
<path d="" fill="#252425" transform="translate(0,0)"/>
<path d="M0 0 C2 1 2 1 2 1 Z " fill="#2A2728" transform="translate(360,811)"/>
<path d="M0 0 C2 1 2 1 2 1 Z " fill="#282727" transform="translate(361,808)"/>
<path d="" fill="#272727" transform="translate(0,0)"/>
<path d="M0 0 C2 1 2 1 2 1 Z " fill="#282828" transform="translate(360,795)"/>
<path d="" fill="#2A2828" transform="translate(0,0)"/>
<path d="" fill="#2C2B2A" transform="translate(0,0)"/>
<path d="" fill="#282727" transform="translate(0,0)"/>
<path d="" fill="#272626" transform="translate(0,0)"/>
<path d="M0 0 C2 1 2 1 2 1 Z " fill="#2B2B2B" transform="translate(256,747)"/>
<path d="M0 0 C2 1 2 1 2 1 Z " fill="#2C2B2A" transform="translate(670,720)"/>
<path d="M0 0 C2 1 2 1 2 1 Z " fill="#2A2A29" transform="translate(662,720)"/>
<path d="" fill="#252523" transform="translate(0,0)"/>
<path d="" fill="#282728" transform="translate(0,0)"/>
<path d="M0 0 C2 1 2 1 2 1 Z " fill="#252625" transform="translate(746,694)"/>
<path d="M0 0 C2 1 2 1 2 1 Z " fill="#272726" transform="translate(744,693)"/>
<path d="M0 0 C2 1 2 1 2 1 Z " fill="#282625" transform="translate(741,692)"/>
<path d="" fill="#272726" transform="translate(0,0)"/>
<path d="M0 0 C2 1 2 1 2 1 Z " fill="#272627" transform="translate(360,683)"/>
<path d="" fill="#2D2C2D" transform="translate(0,0)"/>
<path d="" fill="#262625" transform="translate(0,0)"/>
<path d="" fill="#282725" transform="translate(0,0)"/>
<path d="" fill="#262726" transform="translate(0,0)"/>
<path d="" fill="#292726" transform="translate(0,0)"/>
<path d="" fill="#252623" transform="translate(0,0)"/>
<path d="M0 0 C2 1 2 1 2 1 Z " fill="#292929" transform="translate(699,662)"/>
<path d="" fill="#282526" transform="translate(0,0)"/>
<path d="" fill="#2B2B29" transform="translate(0,0)"/>
<path d="" fill="#262525" transform="translate(0,0)"/>
<path d="" fill="#272827" transform="translate(0,0)"/>
<path d="" fill="#272727" transform="translate(0,0)"/>
<path d="" fill="#292929" transform="translate(0,0)"/>
<path d="" fill="#292726" transform="translate(0,0)"/>
<path d="" fill="#232422" transform="translate(0,0)"/>
<path d="" fill="#272626" transform="translate(0,0)"/>
<path d="" fill="#242423" transform="translate(0,0)"/>
<path d="M0 0 C2 1 2 1 2 1 Z " fill="#292627" transform="translate(160,618)"/>
<path d="" fill="#222423" transform="translate(0,0)"/>
<path d="M0 0 C2 1 2 1 2 1 Z " fill="#2B292A" transform="translate(712,600)"/>
<path d="" fill="#292928" transform="translate(0,0)"/>
<path d="" fill="#282625" transform="translate(0,0)"/>
<path d="" fill="#232323" transform="translate(0,0)"/>
<path d="" fill="#232323" transform="translate(0,0)"/>
<path d="M0 0 C2 1 2 1 2 1 Z " fill="#2B2A29" transform="translate(745,578)"/>
<path d="M0 0 C2 1 2 1 2 1 Z " fill="#262526" transform="translate(566,560)"/>
<path d="" fill="#282828" transform="translate(0,0)"/>
<path d="" fill="#242422" transform="translate(0,0)"/>
<path d="" fill="#262525" transform="translate(0,0)"/>
<path d="" fill="#232224" transform="translate(0,0)"/>
<path d="" fill="#272828" transform="translate(0,0)"/>
<path d="" fill="#242423" transform="translate(0,0)"/>
<path d="" fill="#2C2A2A" transform="translate(0,0)"/>
<path d="" fill="#292828" transform="translate(0,0)"/>
<path d="" fill="#282626" transform="translate(0,0)"/>
<path d="" fill="#262525" transform="translate(0,0)"/>
<path d="" fill="#242425" transform="translate(0,0)"/>
<path d="" fill="#2D2D2B" transform="translate(0,0)"/>
<path d="" fill="#2C2929" transform="translate(0,0)"/>
<path d="" fill="#262525" transform="translate(0,0)"/>
<path d="" fill="#272725" transform="translate(0,0)"/>
<path d="" fill="#242323" transform="translate(0,0)"/>
<path d="" fill="#282726" transform="translate(0,0)"/>
<path d="M0 0 C2 1 2 1 2 1 Z " fill="#282827" transform="translate(430,483)"/>
<path d="M0 0 C2 1 2 1 2 1 Z " fill="#262626" transform="translate(421,483)"/>
<path d="" fill="#272525" transform="translate(0,0)"/>
<path d="" fill="#2B2A29" transform="translate(0,0)"/>
<path d="" fill="#292A29" transform="translate(0,0)"/>
<path d="" fill="#2C2D2D" transform="translate(0,0)"/>
<path d="" fill="#292929" transform="translate(0,0)"/>
<path d="" fill="#2A2827" transform="translate(0,0)"/>
<path d="M0 0 C2 1 2 1 2 1 Z " fill="#2A2A27" transform="translate(837,431)"/>
<path d="M0 0 C2 1 2 1 2 1 Z " fill="#292726" transform="translate(835,430)"/>
<path d="M0 0 C2 1 2 1 2 1 Z " fill="#2A2928" transform="translate(555,430)"/>
<path d="M0 0 C2 1 2 1 2 1 Z " fill="#242220" transform="translate(512,430)"/>
<path d="" fill="#282928" transform="translate(0,0)"/>
<path d="M0 0 C2 1 2 1 2 1 Z " fill="#242322" transform="translate(458,412)"/>
<path d="" fill="#292928" transform="translate(0,0)"/>
<path d="M0 0 C2 1 2 1 2 1 Z " fill="#212121" transform="translate(457,408)"/>
<path d="" fill="#202121" transform="translate(0,0)"/>
<path d="M0 0 C2 1 2 1 2 1 Z " fill="#202020" transform="translate(436,400)"/>
<path d="M0 0 C2 1 2 1 2 1 Z " fill="#242222" transform="translate(785,399)"/>
<path d="M0 0 C2 1 2 1 2 1 Z " fill="#262423" transform="translate(424,392)"/>
<path d="" fill="#20201F" transform="translate(0,0)"/>
<path d="" fill="#262524" transform="translate(0,0)"/>
<path d="M0 0 C2 1 2 1 2 1 Z " fill="#272425" transform="translate(377,384)"/>
<path d="M0 0 C2 1 2 1 2 1 Z " fill="#29292A" transform="translate(386,376)"/>
<path d="" fill="#232323" transform="translate(0,0)"/>
<path d="" fill="#252423" transform="translate(0,0)"/>
<path d="M0 0 C2 1 2 1 2 1 Z " fill="#282625" transform="translate(835,320)"/>
<path d="" fill="#282626" transform="translate(0,0)"/>
<path d="" fill="#282625" transform="translate(0,0)"/>
<path d="" fill="#262523" transform="translate(0,0)"/>
<path d="M0 0 C2 1 2 1 2 1 Z " fill="#282524" transform="translate(224,259)"/>
<path d="" fill="#242323" transform="translate(0,0)"/>
<path d="" fill="#262525" transform="translate(0,0)"/>
<path d="M0 0 C2 1 2 1 2 1 Z " fill="#252524" transform="translate(716,185)"/>
<path d="" fill="#272526" transform="translate(0,0)"/>
<path d="M0 0 C2 1 2 1 2 1 Z " fill="#272625" transform="translate(641,146)"/>
<path d="M0 0 C2 1 2 1 2 1 Z " fill="#282728" transform="translate(384,145)"/>
<path d="M0 0 C2 1 2 1 2 1 Z " fill="#252425" transform="translate(635,144)"/>
<path d="M0 0 C2 1 2 1 2 1 Z " fill="#282627" transform="translate(591,131)"/>
<path d="M0 0 C2 1 2 1 2 1 Z " fill="#272826" transform="translate(582,129)"/>
<path d="" fill="#292827" transform="translate(0,0)"/>
<path d="M0 0 C2 1 2 1 2 1 Z " fill="#2C2A29" transform="translate(548,124)"/>
<path d="M0 0 C2 1 2 1 2 1 Z " fill="#2B2A28" transform="translate(475,124)"/>
<path d="" fill="#262625" transform="translate(0,0)"/>
<path d="" fill="#1E1C1C" transform="translate(0,0)"/>
<path d="" fill="#20201E" transform="translate(0,0)"/>
<path d="" fill="#2A2928" transform="translate(0,0)"/>
<path d="" fill="#272826" transform="translate(0,0)"/>
<path d="" fill="#292928" transform="translate(0,0)"/>
<path d="" fill="#272727" transform="translate(0,0)"/>
<path d="" fill="#2A2928" transform="translate(0,0)"/>
<path d="" fill="#282526" transform="translate(0,0)"/>
<path d="" fill="#272627" transform="translate(0,0)"/>
<path d="" fill="#262625" transform="translate(0,0)"/>
<path d="" fill="#242324" transform="translate(0,0)"/>
<path d="" fill="#242524" transform="translate(0,0)"/>
<path d="" fill="#292A29" transform="translate(0,0)"/>
<path d="" fill="#272323" transform="translate(0,0)"/>
<path d="" fill="#262524" transform="translate(0,0)"/>
<path d="" fill="#252424" transform="translate(0,0)"/>
<path d="" fill="#2A2826" transform="translate(0,0)"/>
<path d="" fill="#272625" transform="translate(0,0)"/>
<path d="" fill="#272624" transform="translate(0,0)"/>
<path d="" fill="#2E2C2B" transform="translate(0,0)"/>
<path d="" fill="#242324" transform="translate(0,0)"/>
<path d="" fill="#2E2C2B" transform="translate(0,0)"/>
<path d="" fill="#252827" transform="translate(0,0)"/>
<path d="" fill="#2C2A2A" transform="translate(0,0)"/>
<path d="" fill="#292928" transform="translate(0,0)"/>
<path d="" fill="#282927" transform="translate(0,0)"/>
<path d="" fill="#292828" transform="translate(0,0)"/>
<path d="" fill="#2A2926" transform="translate(0,0)"/>
<path d="" fill="#2A2928" transform="translate(0,0)"/>
<path d="" fill="#282828" transform="translate(0,0)"/>
<path d="" fill="#292727" transform="translate(0,0)"/>
<path d="" fill="#23201F" transform="translate(0,0)"/>
<path d="" fill="#252725" transform="translate(0,0)"/>
<path d="" fill="#212221" transform="translate(0,0)"/>
<path d="" fill="#282826" transform="translate(0,0)"/>
<path d="" fill="#2B2A27" transform="translate(0,0)"/>
<path d="" fill="#272728" transform="translate(0,0)"/>
<path d="" fill="#292628" transform="translate(0,0)"/>
<path d="" fill="#292828" transform="translate(0,0)"/>
<path d="" fill="#2D2C2B" transform="translate(0,0)"/>
<path d="" fill="#292725" transform="translate(0,0)"/>
<path d="" fill="#2B2929" transform="translate(0,0)"/>
<path d="" fill="#2A2A27" transform="translate(0,0)"/>
<path d="" fill="#262625" transform="translate(0,0)"/>
<path d="" fill="#242324" transform="translate(0,0)"/>
<path d="" fill="#2C2A2A" transform="translate(0,0)"/>
<path d="" fill="#262624" transform="translate(0,0)"/>
<path d="" fill="#262626" transform="translate(0,0)"/>
<path d="" fill="#272524" transform="translate(0,0)"/>
<path d="" fill="#282825" transform="translate(0,0)"/>
<path d="" fill="#292727" transform="translate(0,0)"/>
<path d="" fill="#2B292A" transform="translate(0,0)"/>
<path d="" fill="#2A2928" transform="translate(0,0)"/>
<path d="" fill="#282626" transform="translate(0,0)"/>
<path d="" fill="#2B2B2A" transform="translate(0,0)"/>
<path d="" fill="#2A2828" transform="translate(0,0)"/>
<path d="" fill="#252323" transform="translate(0,0)"/>
<path d="" fill="#2A2928" transform="translate(0,0)"/>
<path d="" fill="#242522" transform="translate(0,0)"/>
<path d="" fill="#272626" transform="translate(0,0)"/>
<path d="" fill="#262525" transform="translate(0,0)"/>
<path d="" fill="#282826" transform="translate(0,0)"/>
<path d="" fill="#2A2828" transform="translate(0,0)"/>
<path d="" fill="#2C2A2B" transform="translate(0,0)"/>
<path d="" fill="#262525" transform="translate(0,0)"/>
<path d="" fill="#272827" transform="translate(0,0)"/>
<path d="" fill="#242223" transform="translate(0,0)"/>
<path d="" fill="#262527" transform="translate(0,0)"/>
<path d="" fill="#2A282A" transform="translate(0,0)"/>
<path d="" fill="#29292A" transform="translate(0,0)"/>
<path d="" fill="#272828" transform="translate(0,0)"/>
<path d="" fill="#282725" transform="translate(0,0)"/>
<path d="" fill="#282728" transform="translate(0,0)"/>
<path d="" fill="#292726" transform="translate(0,0)"/>
<path d="" fill="#2B2C2B" transform="translate(0,0)"/>
<path d="" fill="#292929" transform="translate(0,0)"/>
<path d="" fill="#262625" transform="translate(0,0)"/>
<path d="" fill="#2A2A2B" transform="translate(0,0)"/>
<path d="" fill="#2C2A28" transform="translate(0,0)"/>
<path d="" fill="#2B2B2B" transform="translate(0,0)"/>
<path d="" fill="#2C2C2A" transform="translate(0,0)"/>
<path d="" fill="#2A2A27" transform="translate(0,0)"/>
<path d="" fill="#292729" transform="translate(0,0)"/>
<path d="" fill="#282725" transform="translate(0,0)"/>
<path d="" fill="#232322" transform="translate(0,0)"/>
<path d="" fill="#221F1E" transform="translate(0,0)"/>
<path d="" fill="#252322" transform="translate(0,0)"/>
<path d="" fill="#232322" transform="translate(0,0)"/>
<path d="" fill="#272525" transform="translate(0,0)"/>
<path d="" fill="#292B2B" transform="translate(0,0)"/>
<path d="" fill="#262527" transform="translate(0,0)"/>
<path d="" fill="#292728" transform="translate(0,0)"/>
<path d="" fill="#2C2A2B" transform="translate(0,0)"/>
<path d="" fill="#262425" transform="translate(0,0)"/>
<path d="" fill="#282625" transform="translate(0,0)"/>
<path d="" fill="#272525" transform="translate(0,0)"/>
<path d="" fill="#262423" transform="translate(0,0)"/>
<path d="" fill="#232322" transform="translate(0,0)"/>
<path d="" fill="#2A2628" transform="translate(0,0)"/>
<path d="" fill="#28282A" transform="translate(0,0)"/>
<path d="" fill="#292B28" transform="translate(0,0)"/>
<path d="" fill="#2A2626" transform="translate(0,0)"/>
<path d="" fill="#292929" transform="translate(0,0)"/>
<path d="" fill="#242322" transform="translate(0,0)"/>
<path d="" fill="#272728" transform="translate(0,0)"/>
<path d="" fill="#272523" transform="translate(0,0)"/>
<path d="" fill="#2A2828" transform="translate(0,0)"/>
<path d="" fill="#272625" transform="translate(0,0)"/>
<path d="" fill="#292728" transform="translate(0,0)"/>
<path d="" fill="#292729" transform="translate(0,0)"/>
<path d="" fill="#272628" transform="translate(0,0)"/>
<path d="" fill="#272728" transform="translate(0,0)"/>
<path d="" fill="#272626" transform="translate(0,0)"/>
<path d="" fill="#2A2929" transform="translate(0,0)"/>
<path d="" fill="#272625" transform="translate(0,0)"/>
<path d="" fill="#2C2A27" transform="translate(0,0)"/>
<path d="" fill="#272625" transform="translate(0,0)"/>
<path d="" fill="#272627" transform="translate(0,0)"/>
<path d="" fill="#272725" transform="translate(0,0)"/>
<path d="" fill="#272626" transform="translate(0,0)"/>
<path d="" fill="#292928" transform="translate(0,0)"/>
<path d="" fill="#262625" transform="translate(0,0)"/>
<path d="" fill="#2B2929" transform="translate(0,0)"/>
<path d="" fill="#282626" transform="translate(0,0)"/>
<path d="" fill="#2A2828" transform="translate(0,0)"/>
<path d="" fill="#262525" transform="translate(0,0)"/>
<path d="" fill="#292A29" transform="translate(0,0)"/>
<path d="" fill="#262426" transform="translate(0,0)"/>
<path d="" fill="#2A2929" transform="translate(0,0)"/>
<path d="" fill="#242522" transform="translate(0,0)"/>
<path d="" fill="#252524" transform="translate(0,0)"/>
<path d="" fill="#2A2829" transform="translate(0,0)"/>
<path d="" fill="#262626" transform="translate(0,0)"/>
<path d="" fill="#232425" transform="translate(0,0)"/>
<path d="" fill="#2C2B2B" transform="translate(0,0)"/>
<path d="" fill="#292827" transform="translate(0,0)"/>
<path d="" fill="#272525" transform="translate(0,0)"/>
<path d="" fill="#292A29" transform="translate(0,0)"/>
<path d="" fill="#292825" transform="translate(0,0)"/>
<path d="" fill="#282728" transform="translate(0,0)"/>
<path d="" fill="#262525" transform="translate(0,0)"/>
<path d="" fill="#252525" transform="translate(0,0)"/>
<path d="" fill="#2A2726" transform="translate(0,0)"/>
<path d="" fill="#272626" transform="translate(0,0)"/>
<path d="" fill="#282726" transform="translate(0,0)"/>
<path d="" fill="#272727" transform="translate(0,0)"/>
<path d="" fill="#232224" transform="translate(0,0)"/>
<path d="" fill="#282726" transform="translate(0,0)"/>
<path d="" fill="#282727" transform="translate(0,0)"/>
<path d="" fill="#2A2829" transform="translate(0,0)"/>
<path d="" fill="#242323" transform="translate(0,0)"/>
<path d="" fill="#292A28" transform="translate(0,0)"/>
<path d="" fill="#242323" transform="translate(0,0)"/>
<path d="" fill="#252425" transform="translate(0,0)"/>
<path d="" fill="#272627" transform="translate(0,0)"/>
<path d="" fill="#262525" transform="translate(0,0)"/>
<path d="" fill="#242222" transform="translate(0,0)"/>
<path d="" fill="#222222" transform="translate(0,0)"/>
<path d="" fill="#2D2C2B" transform="translate(0,0)"/>
<path d="" fill="#2C2D2C" transform="translate(0,0)"/>
<path d="" fill="#262424" transform="translate(0,0)"/>
<path d="" fill="#2A2528" transform="translate(0,0)"/>
<path d="" fill="#252427" transform="translate(0,0)"/>
<path d="" fill="#2A2929" transform="translate(0,0)"/>
<path d="" fill="#2C2B2B" transform="translate(0,0)"/>
<path d="" fill="#292A29" transform="translate(0,0)"/>
<path d="" fill="#2A2A28" transform="translate(0,0)"/>
<path d="" fill="#2B2A28" transform="translate(0,0)"/>
<path d="" fill="#2A292B" transform="translate(0,0)"/>
<path d="" fill="#272524" transform="translate(0,0)"/>
<path d="" fill="#272628" transform="translate(0,0)"/>
<path d="" fill="#2C2B28" transform="translate(0,0)"/>
<path d="" fill="#292727" transform="translate(0,0)"/>
<path d="" fill="#262426" transform="translate(0,0)"/>
<path d="" fill="#2C2B29" transform="translate(0,0)"/>
<path d="" fill="#2A2829" transform="translate(0,0)"/>
<path d="" fill="#262625" transform="translate(0,0)"/>
<path d="" fill="#2A2929" transform="translate(0,0)"/>
<path d="" fill="#232524" transform="translate(0,0)"/>
<path d="" fill="#242423" transform="translate(0,0)"/>
<path d="" fill="#2B2C2A" transform="translate(0,0)"/>
<path d="" fill="#292929" transform="translate(0,0)"/>
<path d="" fill="#363637" transform="translate(0,0)"/>
<path d="" fill="#262627" transform="translate(0,0)"/>
<path d="" fill="#262625" transform="translate(0,0)"/>
<path d="" fill="#252323" transform="translate(0,0)"/>
<path d="" fill="#2A2B2A" transform="translate(0,0)"/>
<path d="" fill="#2E2B2C" transform="translate(0,0)"/>
<path d="" fill="#29292A" transform="translate(0,0)"/>
<path d="" fill="#272725" transform="translate(0,0)"/>
<path d="" fill="#292829" transform="translate(0,0)"/>
<path d="" fill="#2A2B2A" transform="translate(0,0)"/>
<path d="" fill="#2A2928" transform="translate(0,0)"/>
<path d="" fill="#282524" transform="translate(0,0)"/>
<path d="" fill="#272626" transform="translate(0,0)"/>
<path d="" fill="#232324" transform="translate(0,0)"/>
<path d="" fill="#222423" transform="translate(0,0)"/>
<path d="" fill="#292929" transform="translate(0,0)"/>
<path d="" fill="#272825" transform="translate(0,0)"/>
<path d="" fill="#292A28" transform="translate(0,0)"/>
<path d="" fill="#282A28" transform="translate(0,0)"/>
<path d="" fill="#2A2929" transform="translate(0,0)"/>
<path d="" fill="#282829" transform="translate(0,0)"/>
<path d="" fill="#282928" transform="translate(0,0)"/>
<path d="" fill="#282726" transform="translate(0,0)"/>
<path d="" fill="#252425" transform="translate(0,0)"/>
<path d="" fill="#2A2928" transform="translate(0,0)"/>
<path d="" fill="#2E2D2D" transform="translate(0,0)"/>
<path d="" fill="#30302D" transform="translate(0,0)"/>
<path d="" fill="#2A2828" transform="translate(0,0)"/>
<path d="" fill="#272425" transform="translate(0,0)"/>
<path d="" fill="#313230" transform="translate(0,0)"/>
<path d="" fill="#272525" transform="translate(0,0)"/>
<path d="" fill="#292828" transform="translate(0,0)"/>
<path d="" fill="#322F2D" transform="translate(0,0)"/>
<path d="" fill="#2A2828" transform="translate(0,0)"/>
<path d="" fill="#2B2C2A" transform="translate(0,0)"/>
<path d="" fill="#302F2E" transform="translate(0,0)"/>
<path d="" fill="#232322" transform="translate(0,0)"/>
<path d="" fill="#303030" transform="translate(0,0)"/>
<path d="" fill="#232423" transform="translate(0,0)"/>
<path d="" fill="#282828" transform="translate(0,0)"/>
<path d="" fill="#282526" transform="translate(0,0)"/>
<path d="" fill="#282626" transform="translate(0,0)"/>
<path d="" fill="#232324" transform="translate(0,0)"/>
<path d="" fill="#262523" transform="translate(0,0)"/>
<path d="" fill="#232224" transform="translate(0,0)"/>
<path d="" fill="#2C2A29" transform="translate(0,0)"/>
<path d="" fill="#2E2D30" transform="translate(0,0)"/>
<path d="" fill="#292728" transform="translate(0,0)"/>
<path d="" fill="#292825" transform="translate(0,0)"/>
<path d="" fill="#272627" transform="translate(0,0)"/>
<path d="" fill="#2C2829" transform="translate(0,0)"/>
<path d="" fill="#2F2E2D" transform="translate(0,0)"/>
<path d="" fill="#272826" transform="translate(0,0)"/>
<path d="" fill="#262724" transform="translate(0,0)"/>
<path d="" fill="#242325" transform="translate(0,0)"/>
<path d="" fill="#282527" transform="translate(0,0)"/>
<path d="" fill="#302F30" transform="translate(0,0)"/>
<path d="" fill="#242424" transform="translate(0,0)"/>
<path d="" fill="#2A2827" transform="translate(0,0)"/>
<path d="" fill="#292928" transform="translate(0,0)"/>
<path d="" fill="#2A2A29" transform="translate(0,0)"/>
<path d="" fill="#232322" transform="translate(0,0)"/>
<path d="" fill="#292828" transform="translate(0,0)"/>
<path d="" fill="#282625" transform="translate(0,0)"/>
<path d="" fill="#262726" transform="translate(0,0)"/>
<path d="" fill="#2E2E2D" transform="translate(0,0)"/>
<path d="" fill="#2E2C2C" transform="translate(0,0)"/>
<path d="" fill="#232423" transform="translate(0,0)"/>
<path d="" fill="#222222" transform="translate(0,0)"/>
<path d="" fill="#242220" transform="translate(0,0)"/>
<path d="" fill="#2A2A2B" transform="translate(0,0)"/>
<path d="" fill="#2E2E2C" transform="translate(0,0)"/>
<path d="" fill="#252524" transform="translate(0,0)"/>
<path d="" fill="#262223" transform="translate(0,0)"/>
<path d="" fill="#262525" transform="translate(0,0)"/>
<path d="" fill="#282726" transform="translate(0,0)"/>
<path d="" fill="#282826" transform="translate(0,0)"/>
<path d="" fill="#272826" transform="translate(0,0)"/>
<path d="" fill="#292726" transform="translate(0,0)"/>
<path d="" fill="#282625" transform="translate(0,0)"/>
<path d="" fill="#272626" transform="translate(0,0)"/>
<path d="" fill="#272525" transform="translate(0,0)"/>
<path d="" fill="#262525" transform="translate(0,0)"/>
<path d="" fill="#252724" transform="translate(0,0)"/>
<path d="" fill="#23231E" transform="translate(0,0)"/>
<path d="" fill="#292628" transform="translate(0,0)"/>
<path d="" fill="#282524" transform="translate(0,0)"/>
<path d="" fill="#262523" transform="translate(0,0)"/>
<path d="" fill="#292624" transform="translate(0,0)"/>
<path d="" fill="#2C292A" transform="translate(0,0)"/>
<path d="" fill="#242222" transform="translate(0,0)"/>
<path d="" fill="#282A2B" transform="translate(0,0)"/>
<path d="" fill="#2A2B2C" transform="translate(0,0)"/>
<path d="" fill="#282625" transform="translate(0,0)"/>
<path d="" fill="#2C2B2A" transform="translate(0,0)"/>
<path d="" fill="#242322" transform="translate(0,0)"/>
<path d="" fill="#2E2F30" transform="translate(0,0)"/>
<path d="" fill="#2B2A2A" transform="translate(0,0)"/>
<path d="" fill="#2C2C2B" transform="translate(0,0)"/>
<path d="" fill="#272526" transform="translate(0,0)"/>
<path d="" fill="#302F2D" transform="translate(0,0)"/>
<path d="" fill="#2F2F2F" transform="translate(0,0)"/>
<path d="" fill="#2E2E2C" transform="translate(0,0)"/>
<path d="" fill="#2D2D2B" transform="translate(0,0)"/>
<path d="" fill="#2D2E2B" transform="translate(0,0)"/>
<path d="" fill="#2C2D29" transform="translate(0,0)"/>
<path d="" fill="#322F30" transform="translate(0,0)"/>
<path d="" fill="#313130" transform="translate(0,0)"/>
<path d="" fill="#30302D" transform="translate(0,0)"/>
<path d="" fill="#2E2B2D" transform="translate(0,0)"/>
<path d="" fill="#2D2C2D" transform="translate(0,0)"/>
<path d="" fill="#2F302D" transform="translate(0,0)"/>
<path d="" fill="#2A2829" transform="translate(0,0)"/>
<path d="" fill="#2C2A2A" transform="translate(0,0)"/>
<path d="" fill="#313030" transform="translate(0,0)"/>
<path d="" fill="#2A2B2A" transform="translate(0,0)"/>
<path d="" fill="#302F2E" transform="translate(0,0)"/>
<path d="" fill="#29292A" transform="translate(0,0)"/>
<path d="" fill="#252422" transform="translate(0,0)"/>
<path d="" fill="#2B2A2A" transform="translate(0,0)"/>
<path d="" fill="#2A2729" transform="translate(0,0)"/>
<path d="" fill="#272625" transform="translate(0,0)"/>
<path d="" fill="#292828" transform="translate(0,0)"/>
<path d="" fill="#292926" transform="translate(0,0)"/>
<path d="" fill="#232222" transform="translate(0,0)"/>
<path d="" fill="#1E1C1F" transform="translate(0,0)"/>
<path d="" fill="#20221F" transform="translate(0,0)"/>
<path d="" fill="#222020" transform="translate(0,0)"/>
<path d="" fill="#292827" transform="translate(0,0)"/>
<path d="" fill="#211F20" transform="translate(0,0)"/>
<path d="" fill="#202020" transform="translate(0,0)"/>
<path d="" fill="#292827" transform="translate(0,0)"/>
<path d="" fill="#272726" transform="translate(0,0)"/>
<path d="" fill="#242220" transform="translate(0,0)"/>
<path d="" fill="#232122" transform="translate(0,0)"/>
<path d="" fill="#222223" transform="translate(0,0)"/>
<path d="" fill="#222221" transform="translate(0,0)"/>
<path d="" fill="#272324" transform="translate(0,0)"/>
<path d="" fill="#242322" transform="translate(0,0)"/>
<path d="" fill="#252524" transform="translate(0,0)"/>
<path d="" fill="#262624" transform="translate(0,0)"/>
<path d="" fill="#232121" transform="translate(0,0)"/>
<path d="" fill="#232321" transform="translate(0,0)"/>
<path d="" fill="#242323" transform="translate(0,0)"/>
<path d="" fill="#252324" transform="translate(0,0)"/>
<path d="" fill="#232422" transform="translate(0,0)"/>
<path d="" fill="#222121" transform="translate(0,0)"/>
<path d="" fill="#232424" transform="translate(0,0)"/>
<path d="" fill="#2A2A28" transform="translate(0,0)"/>
<path d="" fill="#232424" transform="translate(0,0)"/>
<path d="" fill="#242224" transform="translate(0,0)"/>
<path d="" fill="#292A27" transform="translate(0,0)"/>
<path d="" fill="#282726" transform="translate(0,0)"/>
<path d="" fill="#272525" transform="translate(0,0)"/>
<path d="" fill="#222322" transform="translate(0,0)"/>
<path d="" fill="#272927" transform="translate(0,0)"/>
<path d="" fill="#29292B" transform="translate(0,0)"/>
<path d="" fill="#252624" transform="translate(0,0)"/>
<path d="" fill="#272423" transform="translate(0,0)"/>
<path d="" fill="#242322" transform="translate(0,0)"/>
<path d="" fill="#242727" transform="translate(0,0)"/>
<path d="" fill="#252423" transform="translate(0,0)"/>
<path d="" fill="#282625" transform="translate(0,0)"/>
<path d="" fill="#262524" transform="translate(0,0)"/>
<path d="" fill="#252724" transform="translate(0,0)"/>
<path d="" fill="#2A2928" transform="translate(0,0)"/>
<path d="" fill="#262726" transform="translate(0,0)"/>
<path d="" fill="#2C2C2C" transform="translate(0,0)"/>
<path d="" fill="#282626" transform="translate(0,0)"/>
<path d="" fill="#252524" transform="translate(0,0)"/>
<path d="" fill="#282523" transform="translate(0,0)"/>
<path d="" fill="#282827" transform="translate(0,0)"/>
<path d="" fill="#242324" transform="translate(0,0)"/>
<path d="" fill="#282726" transform="translate(0,0)"/>
<path d="" fill="#2A2827" transform="translate(0,0)"/>
<path d="" fill="#262827" transform="translate(0,0)"/>
<path d="" fill="#262726" transform="translate(0,0)"/>
<path d="" fill="#282726" transform="translate(0,0)"/>
<path d="" fill="#272725" transform="translate(0,0)"/>
<path d="" fill="#282826" transform="translate(0,0)"/>
<path d="" fill="#222220" transform="translate(0,0)"/>
<path d="" fill="#262625" transform="translate(0,0)"/>
<path d="" fill="#212120" transform="translate(0,0)"/>
<path d="" fill="#292928" transform="translate(0,0)"/>
<path d="" fill="#232421" transform="translate(0,0)"/>
<path d="" fill="#22201E" transform="translate(0,0)"/>
<path d="" fill="#232120" transform="translate(0,0)"/>
<path d="" fill="#292728" transform="translate(0,0)"/>
<path d="" fill="#282626" transform="translate(0,0)"/>
<path d="" fill="#1F1E1D" transform="translate(0,0)"/>
<path d="" fill="#282725" transform="translate(0,0)"/>
<path d="" fill="#201F1D" transform="translate(0,0)"/>
<path d="" fill="#1E1F20" transform="translate(0,0)"/>
<path d="" fill="#222121" transform="translate(0,0)"/>
<path d="" fill="#212120" transform="translate(0,0)"/>
<path d="" fill="#242526" transform="translate(0,0)"/>
<path d="" fill="#272625" transform="translate(0,0)"/>
<path d="" fill="#212121" transform="translate(0,0)"/>
<path d="" fill="#211D1C" transform="translate(0,0)"/>
<path d="" fill="#272521" transform="translate(0,0)"/>
<path d="" fill="#242524" transform="translate(0,0)"/>
<path d="" fill="#252224" transform="translate(0,0)"/>
<path d="" fill="#272527" transform="translate(0,0)"/>
<path d="" fill="#252621" transform="translate(0,0)"/>
<path d="" fill="#292728" transform="translate(0,0)"/>
<path d="" fill="#252524" transform="translate(0,0)"/>
<path d="" fill="#282725" transform="translate(0,0)"/>
<path d="" fill="#232326" transform="translate(0,0)"/>
<path d="" fill="#262627" transform="translate(0,0)"/>
<path d="" fill="#272626" transform="translate(0,0)"/>
<path d="" fill="#242322" transform="translate(0,0)"/>
<path d="" fill="#2C2C2E" transform="translate(0,0)"/>
<path d="" fill="#262425" transform="translate(0,0)"/>
<path d="" fill="#252425" transform="translate(0,0)"/>
<path d="" fill="#262625" transform="translate(0,0)"/>
<path d="" fill="#221F20" transform="translate(0,0)"/>
<path d="" fill="#252523" transform="translate(0,0)"/>
<path d="" fill="#252422" transform="translate(0,0)"/>
<path d="" fill="#222220" transform="translate(0,0)"/>
<path d="" fill="#242424" transform="translate(0,0)"/>
<path d="" fill="#272525" transform="translate(0,0)"/>
<path d="" fill="#1F201F" transform="translate(0,0)"/>
<path d="" fill="#2D2D2C" transform="translate(0,0)"/>
<path d="" fill="#232324" transform="translate(0,0)"/>
<path d="" fill="#252626" transform="translate(0,0)"/>
<path d="" fill="#252525" transform="translate(0,0)"/>
<path d="" fill="#201F21" transform="translate(0,0)"/>
<path d="" fill="#232422" transform="translate(0,0)"/>
<path d="" fill="#212120" transform="translate(0,0)"/>
<path d="" fill="#1F1E1E" transform="translate(0,0)"/>
<path d="" fill="#212122" transform="translate(0,0)"/>
<path d="" fill="#252625" transform="translate(0,0)"/>
<path d="" fill="#21211E" transform="translate(0,0)"/>
<path d="" fill="#282728" transform="translate(0,0)"/>
<path d="" fill="#262625" transform="translate(0,0)"/>
<path d="" fill="#262322" transform="translate(0,0)"/>
<path d="" fill="#252625" transform="translate(0,0)"/>
<path d="" fill="#272624" transform="translate(0,0)"/>
<path d="" fill="#262621" transform="translate(0,0)"/>
<path d="" fill="#252422" transform="translate(0,0)"/>
<path d="" fill="#2B2B2C" transform="translate(0,0)"/>
<path d="" fill="#272626" transform="translate(0,0)"/>
<path d="" fill="#232323" transform="translate(0,0)"/>
<path d="" fill="#252526" transform="translate(0,0)"/>
<path d="" fill="#272525" transform="translate(0,0)"/>
<path d="" fill="#292627" transform="translate(0,0)"/>
<path d="" fill="#242223" transform="translate(0,0)"/>
<path d="" fill="#262625" transform="translate(0,0)"/>
<path d="" fill="#262825" transform="translate(0,0)"/>
<path d="" fill="#2B2929" transform="translate(0,0)"/>
<path d="" fill="#272828" transform="translate(0,0)"/>
<path d="" fill="#272627" transform="translate(0,0)"/>
<path d="" fill="#242224" transform="translate(0,0)"/>
<path d="" fill="#2A2728" transform="translate(0,0)"/>
<path d="" fill="#252322" transform="translate(0,0)"/>
<path d="" fill="#252426" transform="translate(0,0)"/>
<path d="" fill="#262727" transform="translate(0,0)"/>
<path d="" fill="#2B2B28" transform="translate(0,0)"/>
<path d="" fill="#2D2A28" transform="translate(0,0)"/>
<path d="" fill="#262725" transform="translate(0,0)"/>
<path d="" fill="#262626" transform="translate(0,0)"/>
<path d="" fill="#2E2D2D" transform="translate(0,0)"/>
<path d="" fill="#232323" transform="translate(0,0)"/>
<path d="" fill="#292627" transform="translate(0,0)"/>
<path d="" fill="#2A2728" transform="translate(0,0)"/>
<path d="" fill="#282726" transform="translate(0,0)"/>
<path d="" fill="#272624" transform="translate(0,0)"/>
<path d="" fill="#292926" transform="translate(0,0)"/>
<path d="" fill="#292725" transform="translate(0,0)"/>
<path d="" fill="#292627" transform="translate(0,0)"/>
<path d="" fill="#292A27" transform="translate(0,0)"/>
<path d="" fill="#272725" transform="translate(0,0)"/>
<path d="" fill="#29292A" transform="translate(0,0)"/>
<path d="" fill="#28282A" transform="translate(0,0)"/>
<path d="" fill="#2B2928" transform="translate(0,0)"/>
<path d="" fill="#292828" transform="translate(0,0)"/>
<path d="" fill="#292525" transform="translate(0,0)"/>
<path d="" fill="#2D2B2C" transform="translate(0,0)"/>
<path d="" fill="#29262A" transform="translate(0,0)"/>
<path d="" fill="#2A2827" transform="translate(0,0)"/>
<path d="" fill="#2A2826" transform="translate(0,0)"/>
<path d="" fill="#2C2927" transform="translate(0,0)"/>
<path d="" fill="#2D2928" transform="translate(0,0)"/>
<path d="" fill="#2B2C2C" transform="translate(0,0)"/>
<path d="" fill="#2C2D28" transform="translate(0,0)"/>
<path d="" fill="#2D2B2B" transform="translate(0,0)"/>
<path d="" fill="#2B2B29" transform="translate(0,0)"/>
<path d="" fill="#282927" transform="translate(0,0)"/>
<path d="" fill="#2B2B29" transform="translate(0,0)"/>
<path d="" fill="#343332" transform="translate(0,0)"/>
</svg>
