<svg width="20" height="21" viewBox="0 0 20 21" fill="none" xmlns="http://www.w3.org/2000/svg">
<path d="M6.875 8C6.875 7.83424 6.94085 7.67527 7.05806 7.55806C7.17527 7.44085 7.33424 7.375 7.5 7.375H12.5C12.6658 7.375 12.8247 7.44085 12.9419 7.55806C13.0592 7.67527 13.125 7.83424 13.125 8C13.125 8.16576 13.0592 8.32473 12.9419 8.44194C12.8247 8.55915 12.6658 8.625 12.5 8.625H7.5C7.33424 8.625 7.17527 8.55915 7.05806 8.44194C6.94085 8.32473 6.875 8.16576 6.875 8ZM7.5 11.125H12.5C12.6658 11.125 12.8247 11.0592 12.9419 10.9419C13.0592 10.8247 13.125 10.6658 13.125 10.5C13.125 10.3342 13.0592 10.1753 12.9419 10.0581C12.8247 9.94085 12.6658 9.875 12.5 9.875H7.5C7.33424 9.875 7.17527 9.94085 7.05806 10.0581C6.94085 10.1753 6.875 10.3342 6.875 10.5C6.875 10.6658 6.94085 10.8247 7.05806 10.9419C7.17527 11.0592 7.33424 11.125 7.5 11.125ZM10 12.375H7.5C7.33424 12.375 7.17527 12.4408 7.05806 12.5581C6.94085 12.6753 6.875 12.8342 6.875 13C6.875 13.1658 6.94085 13.3247 7.05806 13.4419C7.17527 13.5592 7.33424 13.625 7.5 13.625H10C10.1658 13.625 10.3247 13.5592 10.4419 13.4419C10.5592 13.3247 10.625 13.1658 10.625 13C10.625 12.8342 10.5592 12.6753 10.4419 12.5581C10.3247 12.4408 10.1658 12.375 10 12.375ZM17.5 4.25V12.7414C17.5005 12.9056 17.4684 13.0683 17.4055 13.22C17.3426 13.3717 17.2502 13.5093 17.1336 13.625L13.125 17.6336C13.0093 17.7502 12.8717 17.8426 12.72 17.9055C12.5683 17.9684 12.4056 18.0005 12.2414 18H3.75C3.41848 18 3.10054 17.8683 2.86612 17.6339C2.6317 17.3995 2.5 17.0815 2.5 16.75V4.25C2.5 3.91848 2.6317 3.60054 2.86612 3.36612C3.10054 3.1317 3.41848 3 3.75 3H16.25C16.5815 3 16.8995 3.1317 17.1339 3.36612C17.3683 3.60054 17.5 3.91848 17.5 4.25ZM3.75 16.75H11.875V13C11.875 12.8342 11.9408 12.6753 12.0581 12.5581C12.1753 12.4408 12.3342 12.375 12.5 12.375H16.25V4.25H3.75V16.75ZM13.125 13.625V15.8672L15.3664 13.625H13.125Z" fill="#E1E1E1"/>
</svg>
