<svg width="21" height="21" viewBox="0 0 21 21" fill="none" xmlns="http://www.w3.org/2000/svg">
<path fill-rule="evenodd" clip-rule="evenodd" d="M10.747 18.8459C6.14453 18.8459 2.4137 15.115 2.4137 10.5125C2.4137 5.91003 6.14453 2.1792 10.747 2.1792C15.3495 2.1792 19.0804 5.91003 19.0804 10.5125C19.0804 15.115 15.3495 18.8459 10.747 18.8459ZM10.747 17.1792C12.5151 17.1792 14.2108 16.4768 15.4611 15.2266C16.7113 13.9763 17.4137 12.2806 17.4137 10.5125C17.4137 8.74442 16.7113 7.04873 15.4611 5.79849C14.2108 4.54824 12.5151 3.84587 10.747 3.84587C8.97892 3.84587 7.28323 4.54824 6.03298 5.79849C4.78274 7.04873 4.08036 8.74442 4.08036 10.5125C4.08036 12.2806 4.78274 13.9763 6.03298 15.2266C7.28323 16.4768 8.97892 17.1792 10.747 17.1792ZM9.9137 13.8459H11.5804V15.5125H9.9137V13.8459ZM9.9137 12.1859C9.9137 12.1859 11.5804 12.1792 11.5804 12.1859C11.5804 11.3509 14.0804 10.5125 14.0804 8.84587C14.0804 7.0042 12.6029 5.51253 10.7545 5.51253C10.3162 5.51155 9.8819 5.59704 9.47661 5.76411C9.07133 5.93119 8.70298 6.17656 8.39266 6.48619C8.08233 6.79581 7.83613 7.16361 7.66815 7.56852C7.50016 7.97343 7.41369 8.40749 7.4137 8.84587H9.08036C9.08036 7.9292 9.83036 7.1792 10.747 7.1792C11.6637 7.1792 12.4137 7.9292 12.4137 8.84587C12.4137 9.59587 9.9137 10.8184 9.9137 12.1859Z" fill="#9F9F9F"/>
</svg>
