<svg width="138" height="42" viewBox="0 0 138 42" fill="none" xmlns="http://www.w3.org/2000/svg">
<path d="M20.9472 0.202148C9.90529 0.202148 0.859573 8.62631 0 19.3321L11.2662 23.941C12.2208 23.295 13.374 22.9166 14.6146 22.9166C14.7258 22.9166 14.8365 22.9203 14.9463 22.9264L19.9565 15.7411C19.9565 15.7068 19.956 15.6734 19.956 15.6396C19.956 11.3146 23.5116 7.79603 27.8832 7.79603C32.2542 7.79603 35.8099 11.3146 35.8099 15.6396C35.8099 19.9645 32.2542 23.4836 27.8832 23.4836C27.8228 23.4836 27.7629 23.4821 27.7031 23.4807L20.5575 28.5255C20.5613 28.6171 20.5647 28.7107 20.5647 28.8038C20.5647 32.0506 17.8957 34.691 14.6146 34.691C11.7347 34.691 9.32654 32.6571 8.78105 29.9636L0.724151 26.6679C3.21877 35.3977 11.3246 41.7978 20.9472 41.7978C32.5564 41.7978 41.967 32.486 41.967 21.0007C41.967 9.51349 32.5559 0.202148 20.9472 0.202148Z" fill="#C5C3C0"/>
<path d="M57.2817 14.4323L55.8733 16.8818C54.7885 16.1319 53.3183 15.6805 52.0349 15.6805C50.5681 15.6805 49.6605 16.2814 49.6605 17.3576C49.6605 18.665 51.2727 18.9692 53.669 19.8202C56.2449 20.7215 57.7255 21.7807 57.7255 24.115C57.7255 27.3088 55.1871 29.1024 51.5388 29.1024C49.7608 29.1024 47.6159 28.6482 45.967 27.6557L46.9943 24.9402C48.3338 25.6402 49.9361 26.0554 51.3644 26.0554C53.2898 26.0554 54.205 25.3525 54.205 24.3134C54.205 23.1244 52.8094 22.7671 50.5567 22.029C47.9893 21.1808 46.2103 20.068 46.2103 17.4845C46.2103 14.571 48.5686 12.8977 51.9617 12.8977C54.3266 12.8977 56.2273 13.6391 57.2817 14.4323Z" fill="#C5C3C0"/>
<path d="M69.8551 15.9803V28.8338H66.5389V15.9803H61.7255V13.166H74.6542V15.9803H69.8551Z" fill="#C5C3C0"/>
<path d="M81.9695 15.9719V19.5022H88.3158V22.3166H81.9695V25.9936H89.3327V28.8338H78.6543V13.166H89.3327V15.9719H81.9695Z" fill="#C5C3C0"/>
<path d="M97.8572 25.7914L96.8089 28.8338H93.3326L99.2698 13.166H102.608L108.713 28.8333H105.119L104.048 25.791L97.8572 25.7914ZM100.92 16.9032L98.7576 23.1765H103.127L100.92 16.9032Z" fill="#C5C3C0"/>
<path d="M126.356 19.222L122.023 28.3773H120.151L115.888 19.3038V28.8338H112.713V13.166H115.881L121.203 24.476L126.336 13.166H129.532V28.8338H126.357L126.356 19.222Z" fill="#C5C3C0"/>
<path d="M137.918 20.997C137.918 22.3435 136.899 23.1827 135.728 23.1827C134.554 23.1827 133.532 22.3435 133.532 20.997C133.532 19.651 134.554 18.8174 135.728 18.8174C136.899 18.8174 137.918 19.651 137.918 20.997ZM133.9 20.997C133.9 22.1235 134.72 22.8311 135.728 22.8311C136.733 22.8311 137.55 22.1235 137.55 20.997C137.55 19.8672 136.733 19.1705 135.728 19.1705C134.723 19.1705 133.9 19.8757 133.9 20.997ZM135.759 19.8832C136.327 19.8832 136.518 20.1804 136.518 20.5015C136.518 20.7958 136.341 20.9932 136.127 21.0939L136.636 22.0374H136.219L135.79 21.201H135.347V22.0374H135V19.8832H135.759ZM135.351 20.8856H135.737C135.988 20.8856 136.136 20.73 136.136 20.5344C136.136 20.3369 136.03 20.21 135.737 20.21H135.35V20.8856H135.351Z" fill="#C5C3C0"/>
<path d="M13.0282 31.7597L10.4744 30.7042C10.927 31.6468 11.7099 32.4362 12.7495 32.8697C14.997 33.8063 17.588 32.7395 18.5246 30.4893C18.9782 29.4014 18.981 28.2002 18.5312 27.1094C18.0824 26.0182 17.2355 25.1672 16.1465 24.7131C15.0661 24.2631 13.9085 24.2796 12.8915 24.6637L15.5295 25.7549C17.1871 26.446 17.971 28.3501 17.2801 30.0084C16.5907 31.6671 14.6858 32.4513 13.0282 31.7597Z" fill="#C5C3C0"/>
<path d="M32.8026 15.6395C32.8026 12.758 30.4592 10.4133 27.5783 10.4133C24.6978 10.4133 22.354 12.758 22.354 15.6395C22.354 18.5216 24.6978 20.8653 27.5783 20.8653C30.4592 20.8648 32.8026 18.5211 32.8026 15.6395ZM23.6624 15.6306C23.6624 13.4623 25.4197 11.7048 27.5872 11.7048C29.7548 11.7048 31.512 13.4623 31.512 15.6306C31.512 17.7989 29.7548 19.5564 27.5872 19.5564C25.4197 19.5564 23.6624 17.7985 23.6624 15.6306Z" fill="#C5C3C0"/>
</svg>
