<svg width="17" height="17" viewBox="0 0 17 17" fill="none" xmlns="http://www.w3.org/2000/svg">
<g clip-path="url(#clip0_1318_70)">
<path d="M4.24998 16.2916H2.12498C1.7354 16.2916 1.40201 16.153 1.12481 15.8758C0.847619 15.5986 0.708785 15.265 0.708313 14.8749V12.7499H2.12498V14.8749H4.24998V16.2916ZM12.75 16.2916V14.8749H14.875V12.7499H16.2916V14.8749C16.2916 15.2645 16.1531 15.5981 15.8759 15.8758C15.5987 16.1535 15.265 16.2921 14.875 16.2916H12.75ZM8.49998 13.1041C7.08331 13.1041 5.79958 12.685 4.64877 11.8468C3.49797 11.0086 2.6567 9.89297 2.12498 8.49992C2.65623 7.10686 3.49749 5.99124 4.64877 5.15304C5.80005 4.31485 7.08379 3.89575 8.49998 3.89575C9.91617 3.89575 11.2001 4.31485 12.3519 5.15304C13.5036 5.99124 14.3447 7.10686 14.875 8.49992C14.3437 9.89297 13.5027 11.0086 12.3519 11.8468C11.2011 12.685 9.91712 13.1041 8.49998 13.1041ZM8.49998 10.9791C9.1847 10.9791 9.76908 10.7371 10.2531 10.253C10.7371 9.76902 10.9791 9.18464 10.9791 8.49992C10.9791 7.8152 10.7371 7.23082 10.2531 6.74679C9.76908 6.26277 9.1847 6.02075 8.49998 6.02075C7.81526 6.02075 7.23088 6.26277 6.74685 6.74679C6.26283 7.23082 6.02081 7.8152 6.02081 8.49992C6.02081 9.18464 6.26283 9.76902 6.74685 10.253C7.23088 10.7371 7.81526 10.9791 8.49998 10.9791ZM8.49998 9.56242C8.20484 9.56242 7.95409 9.45924 7.74773 9.25288C7.54137 9.04652 7.43795 8.79553 7.43748 8.49992C7.43701 8.20431 7.54042 7.95356 7.74773 7.74767C7.95504 7.54178 8.20579 7.43836 8.49998 7.43742C8.79417 7.43647 9.04516 7.53989 9.25294 7.74767C9.46072 7.95545 9.5639 8.2062 9.56248 8.49992C9.56106 8.79364 9.45788 9.04463 9.25294 9.25288C9.04799 9.46113 8.79701 9.56431 8.49998 9.56242ZM0.708313 4.24992V2.12492C0.708313 1.73534 0.847146 1.40195 1.12481 1.12475C1.40248 0.847558 1.73587 0.708724 2.12498 0.708252H4.24998V2.12492H2.12498V4.24992H0.708313ZM14.875 4.24992V2.12492H12.75V0.708252H14.875C15.2646 0.708252 15.5982 0.847085 15.8759 1.12475C16.1535 1.40242 16.2921 1.73581 16.2916 2.12492V4.24992H14.875Z" fill="white"/>
</g>
<defs>
<clipPath id="clip0_1318_70">
<rect width="17" height="17" fill="white"/>
</clipPath>
</defs>
</svg>
